<?xml version="1.0" encoding="UTF-8"?> <svg xmlns="http://www.w3.org/2000/svg" viewBox="0 0 100 100" fill-rule="evenodd"> <rect x="0" y="0" width="100" height="100" fill="#e2e2e2" rx="50" ry="50"></rect> <g fill="#000000" style="transform-origin: center center; transform: scale(0.72);"> <path d="M91.5 23h-82A1.5 1.5 0 0 0 8 24.5v52A1.5 1.5 0 0 0 9.5 78h82a1.5 1.5 0 0 0 1.5-1.5v-52a1.5 1.5 0 0 0-1.5-1.5ZM90 75H11V26h79Z"></path> <path d="M18 70h29a1.5 1.5 0 0 0 1.5-1.5 15.77 15.77 0 0 0-16-15.5 15.77 15.77 0 0 0-16 15.5A1.5 1.5 0 0 0 18 70Zm14.5-14a12.85 12.85 0 0 1 12.91 11H19.59A12.85 12.85 0 0 1 32.5 56Zm0-6a8.5 8.5 0 1 0-8.5-8.5 8.51 8.51 0 0 0 8.5 8.5Zm0-14a5.5 5.5 0 1 1-5.5 5.5 5.51 5.51 0 0 1 5.5-5.5Zm19 6h30a1.5 1.5 0 0 0 0-3h-30a1.5 1.5 0 0 0 0 3Zm0 14h30a1.5 1.5 0 0 0 0-3h-30a1.5 1.5 0 0 0 0 3Z"></path> </g> </svg> 