<?xml version="1.0" standalone="no"?>
<!DOCTYPE svg PUBLIC "-//W3C//DTD SVG 20010904//EN"
 "http://www.w3.org/TR/2001/REC-SVG-20010904/DTD/svg10.dtd">
<svg version="1.0" xmlns="http://www.w3.org/2000/svg"
 width="512.000000pt" height="512.000000pt" viewBox="0 0 512.000000 512.000000"
 preserveAspectRatio="xMidYMid meet" style="height: 120px; width: 120px;">

<g transform="translate(0.000000,512.000000) scale(0.100000,-0.100000)"
fill="#000000" stroke="none">
<path d="M24 4335 l-25 -25 3 -537 3 -538 27 -52 c37 -69 89 -120 155 -150
l53 -24 0 -1048 0 -1048 23 -44 c71 -135 254 -145 342 -20 l30 43 5 1059 5
1059 51 24 c63 29 116 81 152 149 l27 52 3 538 3 537 -25 25 c-33 33 -79 33
-111 0 l-25 -24 0 -336 0 -335 -40 0 -40 0 0 335 0 336 -25 24 c-15 16 -36 25
-55 25 -19 0 -40 -9 -55 -25 l-25 -24 0 -336 0 -335 -40 0 -40 0 0 335 0 336
-25 24 c-32 33 -78 33 -110 0 l-25 -24 0 -336 0 -335 -40 0 -40 0 0 335 0 336
-25 24 c-32 33 -78 33 -111 0z m694 -964 c-3 -118 -12 -141 -72 -185 -25 -19
-41 -21 -206 -21 -165 0 -181 2 -206 21 -60 44 -69 67 -72 185 l-4 109 282 0
282 0 -4 -109z m-240 -1402 c-3 -970 -4 -1032 -20 -1043 -13 -8 -23 -8 -35 0
-17 11 -18 73 -21 1043 l-2 1031 40 0 40 0 -2 -1031z"/>
<path d="M2393 4350 c-586 -74 -1086 -412 -1370 -925 -323 -584 -291 -1303 82
-1860 225 -337 546 -583 927 -710 767 -256 1607 31 2059 704 450 670 403 1537
-118 2163 -261 313 -655 540 -1063 613 -111 19 -411 28 -517 15z m517 -179
c337 -69 603 -212 846 -455 195 -195 316 -388 398 -637 139 -419 108 -854 -91
-1249 -165 -330 -408 -572 -740 -739 -261 -130 -569 -189 -851 -163 -231 22
-385 64 -587 162 -194 94 -334 197 -478 350 -383 408 -533 978 -397 1516 76
302 209 534 435 759 267 268 577 422 953 474 107 15 402 5 512 -18z"/>
<path d="M2470 3795 c-8 -2 -49 -9 -90 -15 -236 -39 -480 -167 -660 -350 -330
-333 -443 -815 -295 -1257 142 -425 484 -730 925 -826 126 -27 356 -29 483 -4
329 66 617 259 801 537 62 94 102 177 142 295 100 301 81 626 -56 912 -166
349 -476 598 -850 684 -78 18 -356 35 -400 24z m303 -169 c220 -36 409 -131
574 -289 141 -135 248 -318 300 -512 23 -89 26 -118 26 -265 0 -146 -3 -176
-26 -263 -84 -314 -292 -567 -581 -707 -124 -59 -218 -86 -358 -102 -196 -22
-388 12 -574 102 -228 110 -401 285 -510 514 -160 339 -131 735 77 1056 53 81
214 243 294 295 238 156 507 215 778 171z"/>
<path d="M4504 4335 l-24 -24 2 -1710 3 -1709 30 -43 c88 -125 271 -115 342
20 l23 44 0 724 0 723 95 0 c88 0 98 2 120 25 l25 24 0 719 c0 466 -4 739 -11
778 -37 206 -213 390 -420 439 -99 23 -155 20 -185 -10z m232 -177 c75 -35
140 -101 181 -186 l38 -76 3 -688 3 -688 -161 0 -160 0 0 836 0 836 26 -6 c14
-4 46 -16 70 -28z m-18 -2509 c-3 -665 -4 -713 -20 -723 -13 -8 -23 -8 -35 0
-17 10 -18 58 -21 723 l-2 711 40 0 40 0 -2 -711z"/>
</g>
</svg>
