<?xml version="1.0" standalone="no"?>
<!DOCTYPE svg PUBLIC "-//W3C//DTD SVG 20010904//EN"
 "http://www.w3.org/TR/2001/REC-SVG-20010904/DTD/svg10.dtd">
<svg version="1.0" xmlns="http://www.w3.org/2000/svg"
 width="512.000000pt" height="512.000000pt" viewBox="0 0 512.000000 512.000000"
 preserveAspectRatio="xMidYMid meet" style=" width: 40px; height: 40px;">

<g transform="translate(0.000000,512.000000) scale(0.100000,-0.100000)"
fill="#000000" stroke="none">
<path d="M2460 3784 c-151 -14 -320 -64 -460 -134 -330 -167 -574 -495 -646
-867 -23 -117 -23 -329 0 -446 83 -430 385 -784 796 -932 190 -68 441 -89 633
-51 243 47 467 166 642 341 175 175 294 399 341 642 23 117 23 329 0 446 -95
494 -488 889 -973 981 -85 16 -261 26 -333 20z m-60 -1225 l0 -891 -32 8
c-101 22 -230 78 -318 137 -62 42 -175 151 -222 216 -130 173 -193 412 -168
629 37 316 227 582 512 717 68 32 184 72 216 74 9 1 12 -183 12 -890z m444
860 c275 -92 484 -301 575 -574 97 -293 39 -610 -155 -853 -110 -138 -273
-248 -448 -301 -37 -12 -74 -21 -82 -21 -12 0 -14 135 -14 890 0 810 1 890 16
890 9 0 57 -14 108 -31z"/>
</g>
</svg>
