<?xml version="1.0" standalone="no"?>
<!DOCTYPE svg PUBLIC "-//W3C//DTD SVG 20010904//EN"
 "http://www.w3.org/TR/2001/REC-SVG-20010904/DTD/svg10.dtd">
<svg version="1.0" xmlns="http://www.w3.org/2000/svg"
 width="512.000000pt" height="512.000000pt" viewBox="0 0 512.000000 512.000000"
 preserveAspectRatio="xMidYMid meet" style=" width: 40px; height: 40px;">

<g transform="translate(0.000000,512.000000) scale(0.100000,-0.100000)"
fill="#000000" stroke="none">
<path d="M2495 4626 c-41 -18 -83 -69 -90 -110 -4 -18 -5 -94 -3 -169 3 -119
6 -139 24 -164 73 -98 195 -98 268 0 19 26 21 42 21 192 0 178 -3 191 -67 238
-33 25 -113 32 -153 13z"/>
<path d="M1153 4069 c-44 -13 -90 -62 -104 -112 -19 -71 0 -108 110 -220 108
-111 132 -127 191 -127 86 0 148 54 158 135 8 72 -4 94 -106 198 -123 126
-169 149 -249 126z"/>
<path d="M2460 3784 c-151 -14 -320 -64 -460 -134 -330 -167 -574 -495 -646
-867 -23 -117 -23 -329 0 -446 83 -430 385 -784 796 -932 190 -68 441 -89 633
-51 243 47 467 166 642 341 175 175 294 399 341 642 23 117 23 329 0 446 -95
494 -488 889 -973 981 -85 16 -261 26 -333 20z m-60 -1225 l0 -891 -32 8
c-101 22 -230 78 -318 137 -62 42 -175 151 -222 216 -130 173 -193 412 -168
629 37 316 227 582 512 717 68 32 184 72 216 74 9 1 12 -183 12 -890z m444
860 c275 -92 484 -301 575 -574 97 -293 39 -610 -155 -853 -110 -138 -273
-248 -448 -301 -37 -12 -74 -21 -82 -21 -12 0 -14 135 -14 890 0 810 1 890 16
890 9 0 57 -14 108 -31z"/>
<path d="M575 2706 c-97 -43 -124 -171 -54 -251 43 -49 82 -57 246 -53 125 3
145 5 170 24 98 73 98 195 0 268 -25 19 -44 21 -180 23 -111 2 -160 -1 -182
-11z"/>
<path d="M1275 1491 c-16 -10 -71 -61 -121 -112 -105 -107 -124 -146 -105
-216 14 -52 60 -99 112 -114 69 -21 110 -1 222 110 54 53 106 109 114 125 21
40 13 124 -15 163 -43 60 -146 82 -207 44z"/>
<path d="M2480 988 c-71 -49 -75 -61 -75 -243 0 -150 2 -166 21 -191 39 -53
71 -69 134 -69 63 0 95 16 134 69 19 25 21 41 21 191 0 150 -2 166 -21 192
-35 48 -82 73 -134 73 -32 0 -57 -7 -80 -22z"/>
</g>
</svg>
