<?xml version="1.0" encoding="UTF-8"?>
<!DOCTYPE svg PUBLIC "-//W3C//DTD SVG 1.1//EN" "http://www.w3.org/Graphics/SVG/1.1/DTD/svg11.dtd">
<svg xmlns="http://www.w3.org/2000/svg" version="1.1" width="512.000000pt" height="512.000000pt" viewBox="0 0 512.000000 512.000000" style="shape-rendering:geometricPrecision; text-rendering:geometricPrecision; image-rendering:optimizeQuality; fill-rule:evenodd; width: 40px; height: 40px; clip-rule:evenodd" xmlns:xlink="http://www.w3.org/1999/xlink">
<g><path style="opacity:0.953" fill="#000000" d="M 38.5,16.5 C 62.169,16.3334 85.8357,16.5 109.5,17C 120.822,22.3073 123.322,30.4739 117,41.5C 114.749,43.3773 112.249,44.8773 109.5,46C 88.5026,46.5 67.5026,46.6666 46.5,46.5C 46.9675,68.5663 46.4675,90.5663 45,112.5C 38.5675,121.201 30.7341,122.701 21.5,117C 19.6227,114.749 18.1227,112.249 17,109.5C 16.3333,85.8333 16.3333,62.1667 17,38.5C 19.6812,26.6533 26.8479,19.3199 38.5,16.5 Z"/></g>
<g><path style="opacity:0.952" fill="#000000" d="M 401.5,16.5 C 425.169,16.3334 448.836,16.5 472.5,17C 484.333,19.5 491.5,26.6667 494,38.5C 494.667,62.1667 494.667,85.8333 494,109.5C 489.744,119.041 482.578,122.208 472.5,119C 468.698,116.913 466.198,113.746 465,109.5C 464.5,88.5026 464.333,67.5026 464.5,46.5C 442.434,46.9675 420.434,46.4675 398.5,45C 389.802,38.6084 388.302,30.775 394,21.5C 396.426,19.5476 398.926,17.881 401.5,16.5 Z"/></g>
<g><path style="opacity:0.985" fill="#000000" d="M 242.5,149.5 C 283.47,145.892 312.637,162.559 330,199.5C 341.128,233.818 333.962,263.651 308.5,289C 283.476,308.815 255.81,313.482 225.5,303C 186.481,283.797 170.647,252.63 178,209.5C 187.844,176.818 209.344,156.818 242.5,149.5 Z"/></g>
<g><path style="opacity:0.979" fill="#000000" d="M 245.5,328.5 C 276.931,327.152 306.598,333.652 334.5,348C 343.886,353.387 352.053,360.221 359,368.5C 360.011,373.149 358.511,376.649 354.5,379C 288.167,379.667 221.833,379.667 155.5,379C 151.387,375.491 150.554,371.324 153,366.5C 168.534,350.977 187.034,340.477 208.5,335C 220.793,331.749 233.126,329.582 245.5,328.5 Z"/></g>
<g><path style="opacity:0.952" fill="#000000" d="M 27.5,390.5 C 36.589,389.449 42.7556,393.116 46,401.5C 46.5,422.497 46.6666,443.497 46.5,464.5C 67.5026,464.333 88.5026,464.5 109.5,465C 120.822,470.307 123.322,478.474 117,489.5C 114.749,491.377 112.249,492.877 109.5,494C 85.8333,494.667 62.1667,494.667 38.5,494C 26.6667,491.5 19.5,484.333 17,472.5C 16.3333,448.833 16.3333,425.167 17,401.5C 18.6844,395.984 22.1844,392.318 27.5,390.5 Z"/></g>
<g><path style="opacity:0.952" fill="#000000" d="M 475.5,390.5 C 484.589,389.449 490.756,393.116 494,401.5C 494.667,425.167 494.667,448.833 494,472.5C 491.5,484.333 484.333,491.5 472.5,494C 448.833,494.667 425.167,494.667 401.5,494C 390.164,488.652 387.664,480.486 394,469.5C 396.258,467.57 398.758,466.07 401.5,465C 422.497,464.5 443.497,464.333 464.5,464.5C 464.333,443.497 464.5,422.497 465,401.5C 466.684,395.984 470.184,392.318 475.5,390.5 Z"/></g>
</svg>
