<?xml version="1.0" standalone="no"?>
<!DOCTYPE svg PUBLIC "-//W3C//DTD SVG 20010904//EN"
 "http://www.w3.org/TR/2001/REC-SVG-20010904/DTD/svg10.dtd">
<svg version="1.0" xmlns="http://www.w3.org/2000/svg"
 width="552.000000pt" height="552.000000pt" viewBox="0 0 552.000000 552.000000"
 preserveAspectRatio="xMidYMid meet">

<g transform="translate(0.000000,552.000000) scale(0.100000,-0.100000)"
fill="#000000" stroke="none">
<path d="M204 4575 l-25 -25 3 -537 3 -538 24 -49 c32 -66 91 -122 157 -153
l54 -24 0 -1048 0 -1048 23 -44 c13 -24 43 -57 66 -74 37 -26 51 -30 110 -30
89 0 141 32 177 108 l24 52 0 1042 0 1042 45 20 c63 28 139 102 166 164 l24
52 0 538 0 539 -24 19 c-32 26 -77 24 -106 -6 l-25 -24 0 -336 0 -335 -40 0
-39 0 -3 341 -3 341 -24 19 c-32 26 -77 24 -106 -6 l-25 -24 0 -336 0 -335
-40 0 -39 0 -3 341 -3 341 -24 19 c-32 26 -77 24 -106 -6 l-25 -24 0 -336 0
-335 -40 0 -40 0 0 325 c0 267 -3 331 -15 354 -25 48 -81 56 -121 16z m694
-963 c-3 -100 -5 -111 -30 -144 -48 -62 -77 -70 -263 -66 -181 3 -195 8 -242
78 -20 29 -23 46 -23 136 l0 104 281 0 281 0 -4 -108z m-240 -1403 c-3 -970
-4 -1032 -20 -1043 -13 -8 -23 -8 -35 0 -17 11 -18 73 -21 1043 l-2 1031 40 0
40 0 -2 -1031z"/>
<path d="M2540 4585 c-268 -37 -530 -136 -752 -284 -833 -557 -1057 -1670
-503 -2496 262 -390 650 -657 1106 -759 396 -88 803 -40 1174 139 514 248 880
730 987 1301 29 157 31 458 5 604 -88 478 -325 869 -700 1151 -372 281 -856
407 -1317 344z m569 -173 c515 -113 925 -433 1146 -895 309 -642 173 -1402
-336 -1892 -112 -107 -191 -168 -317 -242 -462 -272 -1046 -294 -1538 -58
-319 153 -609 445 -763 769 -164 342 -204 726 -114 1096 137 568 581 1033
1140 1191 171 48 264 59 483 55 159 -3 226 -8 299 -24z"/>
<path d="M2580 4025 c-113 -19 -233 -58 -345 -113 -447 -221 -720 -684 -691
-1176 18 -321 146 -598 380 -824 377 -364 920 -451 1391 -223 416 201 675 590
702 1050 27 483 -243 947 -680 1167 -232 117 -510 161 -757 119z m397 -160
c214 -41 410 -142 558 -289 374 -371 430 -951 134 -1388 -55 -81 -197 -223
-274 -275 -431 -289 -985 -246 -1357 105 -176 166 -295 395 -329 631 -34 237
20 502 144 706 165 271 417 449 723 509 95 19 303 19 401 1z"/>
<path d="M4689 4581 l-24 -19 0 -1709 0 -1708 21 -40 c68 -130 253 -140 339
-17 l30 44 3 734 3 734 95 0 c87 0 97 2 119 25 l25 24 0 728 c0 810 1 797 -68
927 -71 135 -213 245 -363 281 -89 21 -151 19 -180 -4z m240 -184 c67 -32 137
-107 174 -185 l32 -67 3 -692 3 -693 -161 0 -160 0 0 836 0 837 32 -7 c17 -3
52 -16 77 -29z m-31 -2508 c-3 -665 -4 -713 -20 -723 -13 -8 -23 -8 -35 0 -17
10 -18 58 -21 723 l-2 711 40 0 40 0 -2 -711z"/>
</g>
</svg>
