<?xml version="1.0" encoding="UTF-8"?>
<!DOCTYPE svg PUBLIC "-//W3C//DTD SVG 1.1//EN" "http://www.w3.org/Graphics/SVG/1.1/DTD/svg11.dtd">
<svg xmlns="http://www.w3.org/2000/svg" version="1.1" width="512.000000pt" height="512.000000pt" viewBox="0 0 512.000000 512.000000" style="shape-rendering:geometricPrecision; text-rendering:geometricPrecision; image-rendering:optimizeQuality; fill-rule:evenodd; width: 40px; height: 40px; clip-rule:evenodd" xmlns:xlink="http://www.w3.org/1999/xlink">
<g><path style="opacity:0.985" fill="#000000" d="M 511.5,201.5 C 511.5,205.5 511.5,209.5 511.5,213.5C 506.792,222.347 499.458,225.514 489.5,223C 486.059,221.224 482.892,219.057 480,216.5C 479.667,302.167 479.333,387.833 479,473.5C 473.651,493.348 461.151,506.015 441.5,511.5C 317.5,511.5 193.5,511.5 69.5,511.5C 49.8488,506.015 37.3488,493.348 32,473.5C 31.3333,404.167 31.3333,334.833 32,265.5C 36.4731,256.518 43.6397,253.351 53.5,256C 58,257.833 61.1667,261 63,265.5C 63.3333,331.5 63.6667,397.5 64,463.5C 65.1667,472.667 70.3333,477.833 79.5,479C 106.165,479.5 132.831,479.667 159.5,479.5C 159.333,417.499 159.5,355.499 160,293.5C 164.559,275.274 175.725,263.108 193.5,257C 214.118,255.856 234.785,255.356 255.5,255.5C 276.215,255.356 296.882,255.856 317.5,257C 335.275,263.108 346.441,275.274 351,293.5C 351.5,355.499 351.667,417.499 351.5,479.5C 378.169,479.667 404.835,479.5 431.5,479C 438.566,478.553 443.399,475.053 446,468.5C 447.654,375.202 447.988,281.869 447,188.5C 386.833,138.333 326.667,88.1667 266.5,38C 259.167,32 251.833,32 244.5,38C 170.75,100.421 96.4168,162.087 21.5,223C 11.5416,225.514 4.20824,222.347 -0.5,213.5C -0.5,209.5 -0.5,205.5 -0.5,201.5C 1.21311,198.275 3.54644,195.441 6.5,193C 78.5,133 150.5,73 222.5,13C 242.474,-2.3307 263.14,-3.3307 284.5,10C 320,39.5 355.5,69 391,98.5C 391.333,87.5 391.667,76.5 392,65.5C 396.473,56.5178 403.64,53.3511 413.5,56C 418,57.8333 421.167,61 423,65.5C 423.333,85.8333 423.667,106.167 424,126.5C 450.833,148.667 477.667,170.833 504.5,193C 507.454,195.441 509.787,198.275 511.5,201.5 Z M 207.5,287.5 C 239.502,287.333 271.502,287.5 303.5,288C 312.667,289.167 317.833,294.333 319,303.5C 319.5,362.166 319.667,420.832 319.5,479.5C 276.833,479.5 234.167,479.5 191.5,479.5C 191.333,420.832 191.5,362.166 192,303.5C 193.346,294.322 198.513,288.989 207.5,287.5 Z"/></g>
<g><path style="opacity:0.937" fill="#000000" d="M 233.5,367.5 C 252.778,366.61 259.278,375.276 253,393.5C 246.055,400.069 238.222,401.236 229.5,397C 222.931,390.055 221.764,382.222 226,373.5C 228.114,370.879 230.614,368.879 233.5,367.5 Z"/></g>
</svg>
