<?xml version="1.0" encoding="UTF-8"?>
<!DOCTYPE svg PUBLIC "-//W3C//DTD SVG 1.1//EN" "http://www.w3.org/Graphics/SVG/1.1/DTD/svg11.dtd">
<svg xmlns="http://www.w3.org/2000/svg" version="1.1" width="512.000000pt" height="512.000000pt" viewBox="0 0 512.000000 512.000000" style="shape-rendering:geometricPrecision; text-rendering:geometricPrecision; image-rendering:optimizeQuality; fill-rule:evenodd; width: 40px; height: 40px; clip-rule:evenodd" xmlns:xlink="http://www.w3.org/1999/xlink">
<g><path style="opacity:0.969" fill="#000000" d="M 50.5,50.5 C 91.4731,50.5433 127.64,63.5433 159,89.5C 185.878,63.7008 218.045,50.7008 255.5,50.5C 255.333,78.8353 255.5,107.169 256,135.5C 289.167,168.667 322.333,201.833 355.5,235C 368.452,244.306 382.786,250.64 398.5,254C 419.139,255.371 439.805,255.871 460.5,255.5C 460.667,284.502 460.5,313.502 460,342.5C 432.776,370.392 404.942,397.559 376.5,424C 349.109,443.245 318.776,455.245 285.5,460C 207.167,460.5 128.834,460.667 50.5,460.5C 50.5,448.833 50.5,437.167 50.5,425.5C 127.834,425.667 205.167,425.5 282.5,425C 310.454,420.351 335.788,409.684 358.5,393C 380.667,370.833 402.833,348.667 425,326.5C 425.5,314.505 425.667,302.505 425.5,290.5C 390.915,292.277 359.915,282.777 332.5,262C 307,236.5 281.5,211 256,185.5C 255.667,200.167 255.333,214.833 255,229.5C 251.167,242.667 242.667,251.167 229.5,255C 215.171,255.5 200.837,255.667 186.5,255.5C 186.5,243.833 186.5,232.167 186.5,220.5C 197.833,220.5 209.167,220.5 220.5,220.5C 220.667,177.499 220.5,134.499 220,91.5C 178.302,109.874 156.136,141.874 153.5,187.5C 141.833,187.5 130.167,187.5 118.5,187.5C 118.526,162.557 124.86,139.39 137.5,118C 112.589,96.5577 83.5892,85.7243 50.5,85.5C 50.5,73.8333 50.5,62.1667 50.5,50.5 Z"/></g>
<g><path style="opacity:0.936" fill="#000000" d="M 266.5,272.5 C 280.084,270.431 288.084,276.098 290.5,289.5C 289.499,300.501 283.499,306.501 272.5,307.5C 256.436,304.196 251.603,294.863 258,279.5C 260.441,276.546 263.275,274.213 266.5,272.5 Z"/></g>
</svg>
