<?xml version="1.0" encoding="UTF-8"?>
<!DOCTYPE svg PUBLIC "-//W3C//DTD SVG 1.1//EN" "http://www.w3.org/Graphics/SVG/1.1/DTD/svg11.dtd">
<svg xmlns="http://www.w3.org/2000/svg" version="1.1" width="512.000000pt" height="512.000000pt" viewBox="0 0 512.000000 512.000000" style="shape-rendering:geometricPrecision; text-rendering:geometricPrecision; image-rendering:optimizeQuality; fill-rule:evenodd; width: 40px; height: 40px; clip-rule:evenodd" xmlns:xlink="http://www.w3.org/1999/xlink">
<g><path style="opacity:1" fill="#050505" d="M 58.5,47.5 C 191.167,47.3333 323.834,47.5 456.5,48C 459.647,48.8806 462.647,50.0472 465.5,51.5C 465.821,53.0481 466.821,53.7148 468.5,53.5C 471.432,54.7997 473.766,56.7997 475.5,59.5C 475.427,61.0269 476.094,62.0269 477.5,62.5C 477.427,64.0269 478.094,65.0269 479.5,65.5C 481.008,67.1815 482.008,69.1815 482.5,71.5C 482.41,74.1522 483.076,76.4855 484.5,78.5C 485.664,196.097 485.831,313.764 485,431.5C 482.141,448.025 472.641,458.525 456.5,463C 322.5,463.667 188.5,463.667 54.5,463C 49.0381,461.772 44.3714,459.272 40.5,455.5C 39.7377,453.738 38.4044,452.738 36.5,452.5C 30.9097,446.653 27.4097,439.653 26,431.5C 25.1689,313.764 25.3355,196.097 26.5,78.5C 27.9238,76.4855 28.5905,74.1522 28.5,71.5C 28.9925,69.1815 29.9925,67.1815 31.5,65.5C 32.9063,65.0269 33.573,64.0269 33.5,62.5C 35.2624,61.7377 36.2624,60.4044 36.5,58.5C 38.4044,58.2624 39.7377,57.2624 40.5,55.5C 40.5,54.8333 40.8333,54.5 41.5,54.5C 43.0269,54.573 44.0269,53.9063 44.5,52.5C 46.4261,50.7073 48.7594,49.7073 51.5,49.5C 54.1522,49.5905 56.4855,48.9238 58.5,47.5 Z M 452.5,83.5 C 452.5,106.833 452.5,130.167 452.5,153.5C 321.167,153.5 189.833,153.5 58.5,153.5C 58.5,130.167 58.5,106.833 58.5,83.5C 59.4268,81.4238 61.0935,80.2572 63.5,80C 191.5,79.3333 319.5,79.3333 447.5,80C 449.907,80.2572 451.573,81.4238 452.5,83.5 Z M 58.5,186.5 C 189.833,186.5 321.167,186.5 452.5,186.5C 452.994,267.582 452.494,348.582 451,429.5C 449.933,430.191 448.766,430.691 447.5,431C 319.5,431.667 191.5,431.667 63.5,431C 62.2341,430.691 61.0674,430.191 60,429.5C 58.5057,348.582 58.0057,267.582 58.5,186.5 Z"/></g>
<g><path style="opacity:0.961" fill="#616161" d="M 58.5,47.5 C 56.4855,48.9238 54.1522,49.5905 51.5,49.5C 53.5145,48.0762 55.8478,47.4095 58.5,47.5 Z"/></g>
<g><path style="opacity:0.957" fill="#757575" d="M 465.5,51.5 C 466.71,51.9321 467.71,52.5987 468.5,53.5C 466.821,53.7148 465.821,53.0481 465.5,51.5 Z"/></g>
<g><path style="opacity:0.824" fill="#797979" d="M 44.5,52.5 C 44.0269,53.9063 43.0269,54.573 41.5,54.5C 41.9731,53.0937 42.9731,52.427 44.5,52.5 Z"/></g>
<g><path style="opacity:0.729" fill="#7a7a7a" d="M 40.5,55.5 C 39.7377,57.2624 38.4044,58.2624 36.5,58.5C 37.2623,56.7376 38.5956,55.7376 40.5,55.5 Z"/></g>
<g><path style="opacity:0.761" fill="#8d8d8d" d="M 36.5,58.5 C 36.2624,60.4044 35.2624,61.7377 33.5,62.5C 33.7376,60.5956 34.7376,59.2623 36.5,58.5 Z"/></g>
<g><path style="opacity:0.467" fill="#9f9f9f" d="M 475.5,59.5 C 476.906,59.9731 477.573,60.9731 477.5,62.5C 476.094,62.0269 475.427,61.0269 475.5,59.5 Z"/></g>
<g><path style="opacity:0.58" fill="#7b7b7b" d="M 33.5,62.5 C 33.573,64.0269 32.9063,65.0269 31.5,65.5C 31.427,63.9731 32.0937,62.9731 33.5,62.5 Z"/></g>
<g><path style="opacity:0.565" fill="#7e7e7e" d="M 477.5,62.5 C 478.906,62.9731 479.573,63.9731 479.5,65.5C 478.094,65.0269 477.427,64.0269 477.5,62.5 Z"/></g>
<g><path style="opacity:0.678" fill="#737373" d="M 28.5,71.5 C 28.5905,74.1522 27.9238,76.4855 26.5,78.5C 26.4095,75.8478 27.0762,73.5145 28.5,71.5 Z"/></g>
<g><path style="opacity:0.667" fill="#757575" d="M 482.5,71.5 C 483.924,73.5145 484.59,75.8478 484.5,78.5C 483.076,76.4855 482.41,74.1522 482.5,71.5 Z"/></g>
<g><path style="opacity:0.333" fill="#959595" d="M 58.5,83.5 C 58.5,106.833 58.5,130.167 58.5,153.5C 189.833,153.5 321.167,153.5 452.5,153.5C 452.5,130.167 452.5,106.833 452.5,83.5C 453.498,106.994 453.831,130.661 453.5,154.5C 321.5,154.5 189.5,154.5 57.5,154.5C 57.1691,130.661 57.5024,106.994 58.5,83.5 Z"/></g>
<g><path style="opacity:0.4" fill="#a5a5a5" d="M 250.5,102.5 C 251.906,102.973 252.573,103.973 252.5,105.5C 251.094,105.027 250.427,104.027 250.5,102.5 Z"/></g>
<g><path style="opacity:0.4" fill="#a5a5a5" d="M 186.5,102.5 C 187.906,102.973 188.573,103.973 188.5,105.5C 187.094,105.027 186.427,104.027 186.5,102.5 Z"/></g>
<g><path style="opacity:0.4" fill="#a5a5a5" d="M 122.5,102.5 C 123.906,102.973 124.573,103.973 124.5,105.5C 123.094,105.027 122.427,104.027 122.5,102.5 Z"/></g>
<g><path style="opacity:0.565" fill="#949494" d="M 220.5,100.5 C 219.833,101.833 218.833,102.833 217.5,103.5C 217.5,101.5 218.5,100.5 220.5,100.5 Z"/></g>
<g><path style="opacity:0.565" fill="#949494" d="M 156.5,100.5 C 155.833,101.833 154.833,102.833 153.5,103.5C 153.5,101.5 154.5,100.5 156.5,100.5 Z"/></g>
<g><path style="opacity:0.565" fill="#949494" d="M 92.5,100.5 C 91.8333,101.833 90.8333,102.833 89.5,103.5C 89.5,101.5 90.5,100.5 92.5,100.5 Z"/></g>
<g><path style="opacity:0.937" fill="#868686" d="M 244.5,97.5 C 246.23,98.0256 247.564,99.0256 248.5,100.5C 246.368,100.446 245.035,99.4456 244.5,97.5 Z"/></g>
<g><path style="opacity:0.816" fill="#797979" d="M 224.5,97.5 C 224.027,98.9063 223.027,99.573 221.5,99.5C 221.973,98.0937 222.973,97.427 224.5,97.5 Z"/></g>
<g><path style="opacity:0.937" fill="#868686" d="M 180.5,97.5 C 182.23,98.0256 183.564,99.0256 184.5,100.5C 182.368,100.446 181.035,99.4456 180.5,97.5 Z"/></g>
<g><path style="opacity:0.816" fill="#797979" d="M 160.5,97.5 C 160.027,98.9063 159.027,99.573 157.5,99.5C 157.973,98.0937 158.973,97.427 160.5,97.5 Z"/></g>
<g><path style="opacity:0.937" fill="#868686" d="M 116.5,97.5 C 118.23,98.0256 119.564,99.0256 120.5,100.5C 118.368,100.446 117.035,99.4456 116.5,97.5 Z"/></g>
<g><path style="opacity:0.816" fill="#797979" d="M 96.5,97.5 C 96.0269,98.9063 95.0269,99.573 93.5,99.5C 93.9731,98.0937 94.9731,97.427 96.5,97.5 Z"/></g>
<g><path style="opacity:1" fill="#0e0e0e" d="M 244.5,97.5 C 245.035,99.4456 246.368,100.446 248.5,100.5C 249.5,100.833 250.167,101.5 250.5,102.5C 250.427,104.027 251.094,105.027 252.5,105.5C 254.961,108.638 255.961,112.305 255.5,116.5C 255.288,130.546 248.122,137.879 234,138.5C 218.041,136.535 211.041,127.535 213,111.5C 213.754,108.316 215.254,105.649 217.5,103.5C 218.833,102.833 219.833,101.833 220.5,100.5C 220.5,99.8333 220.833,99.5 221.5,99.5C 223.027,99.573 224.027,98.9063 224.5,97.5C 231.091,94.8437 237.758,94.8437 244.5,97.5 Z"/></g>
<g><path style="opacity:1" fill="#0e0e0e" d="M 180.5,97.5 C 181.035,99.4456 182.368,100.446 184.5,100.5C 185.5,100.833 186.167,101.5 186.5,102.5C 186.427,104.027 187.094,105.027 188.5,105.5C 190.961,108.638 191.961,112.305 191.5,116.5C 191.288,130.546 184.122,137.879 170,138.5C 154.041,136.535 147.041,127.535 149,111.5C 149.754,108.316 151.254,105.649 153.5,103.5C 154.833,102.833 155.833,101.833 156.5,100.5C 156.5,99.8333 156.833,99.5 157.5,99.5C 159.027,99.573 160.027,98.9063 160.5,97.5C 167.091,94.8437 173.758,94.8437 180.5,97.5 Z"/></g>
<g><path style="opacity:1" fill="#0e0e0e" d="M 116.5,97.5 C 117.035,99.4456 118.368,100.446 120.5,100.5C 121.5,100.833 122.167,101.5 122.5,102.5C 122.427,104.027 123.094,105.027 124.5,105.5C 126.961,108.638 127.961,112.305 127.5,116.5C 127.288,130.546 120.122,137.879 106,138.5C 90.0414,136.535 83.0414,127.535 85,111.5C 85.7542,108.316 87.2542,105.649 89.5,103.5C 90.8333,102.833 91.8333,101.833 92.5,100.5C 92.5,99.8333 92.8333,99.5 93.5,99.5C 95.0269,99.573 96.0269,98.9063 96.5,97.5C 103.091,94.8437 109.758,94.8437 116.5,97.5 Z"/></g>
<g><path style="opacity:1" fill="#0e0e0e" d="M 299.5,244.5 C 299.427,246.027 300.094,247.027 301.5,247.5C 304.437,254.272 303.937,260.939 300,267.5C 278.667,302.833 257.333,338.167 236,373.5C 229.168,379.234 222.001,379.901 214.5,375.5C 213.738,373.738 212.404,372.738 210.5,372.5C 205.483,365.072 205.816,357.739 211.5,350.5C 212.906,350.027 213.573,349.027 213.5,347.5C 213.328,346.508 213.662,345.842 214.5,345.5C 215.906,345.027 216.573,344.027 216.5,342.5C 216.328,341.508 216.662,340.842 217.5,340.5C 218.906,340.027 219.573,339.027 219.5,337.5C 219.328,336.508 219.662,335.842 220.5,335.5C 221.906,335.027 222.573,334.027 222.5,332.5C 222.328,331.508 222.662,330.842 223.5,330.5C 224.906,330.027 225.573,329.027 225.5,327.5C 225.328,326.508 225.662,325.842 226.5,325.5C 227.906,325.027 228.573,324.027 228.5,322.5C 228.328,321.508 228.662,320.842 229.5,320.5C 230.906,320.027 231.573,319.027 231.5,317.5C 231.328,316.508 231.662,315.842 232.5,315.5C 233.906,315.027 234.573,314.027 234.5,312.5C 234.328,311.508 234.662,310.842 235.5,310.5C 236.906,310.027 237.573,309.027 237.5,307.5C 237.328,306.508 237.662,305.842 238.5,305.5C 239.906,305.027 240.573,304.027 240.5,302.5C 240.328,301.508 240.662,300.842 241.5,300.5C 242.906,300.027 243.573,299.027 243.5,297.5C 243.328,296.508 243.662,295.842 244.5,295.5C 245.906,295.027 246.573,294.027 246.5,292.5C 246.328,291.508 246.662,290.842 247.5,290.5C 248.906,290.027 249.573,289.027 249.5,287.5C 249.328,286.508 249.662,285.842 250.5,285.5C 251.906,285.027 252.573,284.027 252.5,282.5C 252.328,281.508 252.662,280.842 253.5,280.5C 254.906,280.027 255.573,279.027 255.5,277.5C 255.328,276.508 255.662,275.842 256.5,275.5C 257.906,275.027 258.573,274.027 258.5,272.5C 258.328,271.508 258.662,270.842 259.5,270.5C 260.906,270.027 261.573,269.027 261.5,267.5C 261.328,266.508 261.662,265.842 262.5,265.5C 263.906,265.027 264.573,264.027 264.5,262.5C 264.328,261.508 264.662,260.842 265.5,260.5C 266.906,260.027 267.573,259.027 267.5,257.5C 267.328,256.508 267.662,255.842 268.5,255.5C 269.906,255.027 270.573,254.027 270.5,252.5C 270.328,251.508 270.662,250.842 271.5,250.5C 272.906,250.027 273.573,249.027 273.5,247.5C 274.989,243.847 277.656,241.347 281.5,240C 285.5,239.333 289.5,239.333 293.5,240C 296.106,240.792 298.106,242.292 299.5,244.5 Z"/></g>
<g><path style="opacity:1" fill="#0d0d0d" d="M 326.5,354.5 C 327.906,354.027 328.573,353.027 328.5,351.5C 330.749,350.92 332.415,349.587 333.5,347.5C 333.5,346.833 333.833,346.5 334.5,346.5C 336.749,345.92 338.415,344.587 339.5,342.5C 339.5,341.833 339.833,341.5 340.5,341.5C 342.749,340.92 344.415,339.587 345.5,337.5C 345.5,336.833 345.833,336.5 346.5,336.5C 348.749,335.92 350.415,334.587 351.5,332.5C 351.5,331.833 351.833,331.5 352.5,331.5C 354.749,330.92 356.415,329.587 357.5,327.5C 357.5,326.833 357.833,326.5 358.5,326.5C 360.749,325.92 362.415,324.587 363.5,322.5C 363.5,321.833 363.833,321.5 364.5,321.5C 366.749,320.92 368.415,319.587 369.5,317.5C 369.5,316.833 369.833,316.5 370.5,316.5C 373.089,315.581 375.089,313.914 376.5,311.5C 378.252,311.582 379.252,310.749 379.5,309C 379.252,307.251 378.252,306.418 376.5,306.5C 375.167,305.833 374.167,304.833 373.5,303.5C 373.027,302.094 372.027,301.427 370.5,301.5C 369.167,300.833 368.167,299.833 367.5,298.5C 367.027,297.094 366.027,296.427 364.5,296.5C 363.167,295.833 362.167,294.833 361.5,293.5C 361.027,292.094 360.027,291.427 358.5,291.5C 357.167,290.833 356.167,289.833 355.5,288.5C 355.027,287.094 354.027,286.427 352.5,286.5C 351.167,285.833 350.167,284.833 349.5,283.5C 349.027,282.094 348.027,281.427 346.5,281.5C 345.167,280.833 344.167,279.833 343.5,278.5C 343.027,277.094 342.027,276.427 340.5,276.5C 339.167,275.833 338.167,274.833 337.5,273.5C 337.027,272.094 336.027,271.427 334.5,271.5C 333.167,270.833 332.167,269.833 331.5,268.5C 331.027,267.094 330.027,266.427 328.5,266.5C 324.256,260.779 323.423,254.446 326,247.5C 326.383,246.944 326.883,246.611 327.5,246.5C 328.906,246.027 329.573,245.027 329.5,243.5C 331.027,243.573 332.027,242.906 332.5,241.5C 339.756,237.764 346.756,238.598 353.5,244C 375,262.167 396.5,280.333 418,298.5C 423.168,306.988 422.335,314.821 415.5,322C 393.167,340.333 370.833,358.667 348.5,377C 334.681,381.098 326.681,376.098 324.5,362C 324.408,359.179 325.074,356.679 326.5,354.5 Z"/></g>
<g><path style="opacity:1" fill="#0c0c0c" d="M 180.5,242.5 C 180.738,244.404 181.738,245.738 183.5,246.5C 187.549,253.115 187.382,259.782 183,266.5C 166.167,280.667 149.333,294.833 132.5,309C 149.358,323.031 166.025,337.198 182.5,351.5C 182.427,353.027 183.094,354.027 184.5,354.5C 188.876,365.527 185.542,373.36 174.5,378C 170.194,378.912 166.194,378.412 162.5,376.5C 162.027,375.094 161.027,374.427 159.5,374.5C 158.5,374.167 157.833,373.5 157.5,372.5C 156.738,370.738 155.404,369.738 153.5,369.5C 152.5,369.167 151.833,368.5 151.5,367.5C 150.738,365.738 149.404,364.738 147.5,364.5C 146.5,364.167 145.833,363.5 145.5,362.5C 144.738,360.738 143.404,359.738 141.5,359.5C 140.5,359.167 139.833,358.5 139.5,357.5C 138.738,355.738 137.404,354.738 135.5,354.5C 134.5,354.167 133.833,353.5 133.5,352.5C 132.738,350.738 131.404,349.738 129.5,349.5C 128.5,349.167 127.833,348.5 127.5,347.5C 126.738,345.738 125.404,344.738 123.5,344.5C 122.5,344.167 121.833,343.5 121.5,342.5C 120.738,340.738 119.404,339.738 117.5,339.5C 116.5,339.167 115.833,338.5 115.5,337.5C 114.738,335.738 113.404,334.738 111.5,334.5C 110.5,334.167 109.833,333.5 109.5,332.5C 108.738,330.738 107.404,329.738 105.5,329.5C 104.5,329.167 103.833,328.5 103.5,327.5C 102.738,325.738 101.404,324.738 99.5,324.5C 98.5,324.167 97.8333,323.5 97.5,322.5C 95.785,320.118 93.785,318.118 91.5,316.5C 88.3152,309.456 89.3152,303.122 94.5,297.5C 96.7488,296.92 98.4154,295.587 99.5,293.5C 102.089,292.581 104.089,290.914 105.5,288.5C 108.089,287.581 110.089,285.914 111.5,283.5C 114.089,282.581 116.089,280.914 117.5,278.5C 120.089,277.581 122.089,275.914 123.5,273.5C 126.089,272.581 128.089,270.914 129.5,268.5C 132.089,267.581 134.089,265.914 135.5,263.5C 138.089,262.581 140.089,260.914 141.5,258.5C 144.089,257.581 146.089,255.914 147.5,253.5C 150.089,252.581 152.089,250.914 153.5,248.5C 156.089,247.581 158.089,245.914 159.5,243.5C 162.227,240.395 165.727,239.062 170,239.5C 173.939,239.205 177.439,240.205 180.5,242.5 Z"/></g>
<g><path style="opacity:0.682" fill="#969696" d="M 332.5,241.5 C 332.027,242.906 331.027,243.573 329.5,243.5C 329.973,242.094 330.973,241.427 332.5,241.5 Z"/></g>
<g><path style="opacity:0.675" fill="#a2a2a2" d="M 180.5,242.5 C 182.262,243.262 183.262,244.596 183.5,246.5C 181.738,245.738 180.738,244.404 180.5,242.5 Z"/></g>
<g><path style="opacity:0.769" fill="#898989" d="M 329.5,243.5 C 329.573,245.027 328.906,246.027 327.5,246.5C 327.427,244.973 328.094,243.973 329.5,243.5 Z"/></g>
<g><path style="opacity:0.91" fill="#606060" d="M 159.5,243.5 C 158.089,245.914 156.089,247.581 153.5,248.5C 154.911,246.086 156.911,244.419 159.5,243.5 Z"/></g>
<g><path style="opacity:0.545" fill="#898989" d="M 299.5,244.5 C 300.906,244.973 301.573,245.973 301.5,247.5C 300.094,247.027 299.427,246.027 299.5,244.5 Z"/></g>
<g><path style="opacity:0.369" fill="#a3a3a3" d="M 273.5,247.5 C 273.573,249.027 272.906,250.027 271.5,250.5C 271.427,248.973 272.094,247.973 273.5,247.5 Z"/></g>
<g><path style="opacity:0.906" fill="#616161" d="M 153.5,248.5 C 152.089,250.914 150.089,252.581 147.5,253.5C 148.911,251.086 150.911,249.419 153.5,248.5 Z"/></g>
<g><path style="opacity:0.369" fill="#a3a3a3" d="M 270.5,252.5 C 270.573,254.027 269.906,255.027 268.5,255.5C 268.427,253.973 269.094,252.973 270.5,252.5 Z"/></g>
<g><path style="opacity:0.91" fill="#616161" d="M 147.5,253.5 C 146.089,255.914 144.089,257.581 141.5,258.5C 142.911,256.086 144.911,254.419 147.5,253.5 Z"/></g>
<g><path style="opacity:0.373" fill="#a2a2a2" d="M 267.5,257.5 C 267.573,259.027 266.906,260.027 265.5,260.5C 265.427,258.973 266.094,257.973 267.5,257.5 Z"/></g>
<g><path style="opacity:0.906" fill="#616161" d="M 141.5,258.5 C 140.089,260.914 138.089,262.581 135.5,263.5C 136.911,261.086 138.911,259.419 141.5,258.5 Z"/></g>
<g><path style="opacity:0.373" fill="#a2a2a2" d="M 264.5,262.5 C 264.573,264.027 263.906,265.027 262.5,265.5C 262.427,263.973 263.094,262.973 264.5,262.5 Z"/></g>
<g><path style="opacity:0.91" fill="#616161" d="M 135.5,263.5 C 134.089,265.914 132.089,267.581 129.5,268.5C 130.911,266.086 132.911,264.419 135.5,263.5 Z"/></g>
<g><path style="opacity:0.733" fill="#8c8c8c" d="M 328.5,266.5 C 330.027,266.427 331.027,267.094 331.5,268.5C 329.973,268.573 328.973,267.906 328.5,266.5 Z"/></g>
<g><path style="opacity:0.373" fill="#a3a3a3" d="M 261.5,267.5 C 261.573,269.027 260.906,270.027 259.5,270.5C 259.427,268.973 260.094,267.973 261.5,267.5 Z"/></g>
<g><path style="opacity:0.906" fill="#626262" d="M 129.5,268.5 C 128.089,270.914 126.089,272.581 123.5,273.5C 124.911,271.086 126.911,269.419 129.5,268.5 Z"/></g>
<g><path style="opacity:0.757" fill="#898989" d="M 334.5,271.5 C 336.027,271.427 337.027,272.094 337.5,273.5C 335.973,273.573 334.973,272.906 334.5,271.5 Z"/></g>
<g><path style="opacity:0.373" fill="#a3a3a3" d="M 258.5,272.5 C 258.573,274.027 257.906,275.027 256.5,275.5C 256.427,273.973 257.094,272.973 258.5,272.5 Z"/></g>
<g><path style="opacity:0.906" fill="#626262" d="M 123.5,273.5 C 122.089,275.914 120.089,277.581 117.5,278.5C 118.911,276.086 120.911,274.419 123.5,273.5 Z"/></g>
<g><path style="opacity:0.757" fill="#898989" d="M 340.5,276.5 C 342.027,276.427 343.027,277.094 343.5,278.5C 341.973,278.573 340.973,277.906 340.5,276.5 Z"/></g>
<g><path style="opacity:0.373" fill="#a3a3a3" d="M 255.5,277.5 C 255.573,279.027 254.906,280.027 253.5,280.5C 253.427,278.973 254.094,277.973 255.5,277.5 Z"/></g>
<g><path style="opacity:0.906" fill="#626262" d="M 117.5,278.5 C 116.089,280.914 114.089,282.581 111.5,283.5C 112.911,281.086 114.911,279.419 117.5,278.5 Z"/></g>
<g><path style="opacity:0.757" fill="#898989" d="M 346.5,281.5 C 348.027,281.427 349.027,282.094 349.5,283.5C 347.973,283.573 346.973,282.906 346.5,281.5 Z"/></g>
<g><path style="opacity:0.373" fill="#a3a3a3" d="M 252.5,282.5 C 252.573,284.027 251.906,285.027 250.5,285.5C 250.427,283.973 251.094,282.973 252.5,282.5 Z"/></g>
<g><path style="opacity:0.906" fill="#626262" d="M 111.5,283.5 C 110.089,285.914 108.089,287.581 105.5,288.5C 106.911,286.086 108.911,284.419 111.5,283.5 Z"/></g>
<g><path style="opacity:0.757" fill="#898989" d="M 352.5,286.5 C 354.027,286.427 355.027,287.094 355.5,288.5C 353.973,288.573 352.973,287.906 352.5,286.5 Z"/></g>
<g><path style="opacity:0.373" fill="#a3a3a3" d="M 249.5,287.5 C 249.573,289.027 248.906,290.027 247.5,290.5C 247.427,288.973 248.094,287.973 249.5,287.5 Z"/></g>
<g><path style="opacity:0.906" fill="#626262" d="M 105.5,288.5 C 104.089,290.914 102.089,292.581 99.5,293.5C 100.911,291.086 102.911,289.419 105.5,288.5 Z"/></g>
<g><path style="opacity:0.757" fill="#898989" d="M 358.5,291.5 C 360.027,291.427 361.027,292.094 361.5,293.5C 359.973,293.573 358.973,292.906 358.5,291.5 Z"/></g>
<g><path style="opacity:0.373" fill="#a3a3a3" d="M 246.5,292.5 C 246.573,294.027 245.906,295.027 244.5,295.5C 244.427,293.973 245.094,292.973 246.5,292.5 Z"/></g>
<g><path style="opacity:0.902" fill="#6b6b6b" d="M 99.5,293.5 C 98.4154,295.587 96.7488,296.92 94.5,297.5C 95.5846,295.413 97.2512,294.08 99.5,293.5 Z"/></g>
<g><path style="opacity:0.776" fill="#858585" d="M 364.5,296.5 C 366.027,296.427 367.027,297.094 367.5,298.5C 365.973,298.573 364.973,297.906 364.5,296.5 Z"/></g>
<g><path style="opacity:0.373" fill="#a3a3a3" d="M 243.5,297.5 C 243.573,299.027 242.906,300.027 241.5,300.5C 241.427,298.973 242.094,297.973 243.5,297.5 Z"/></g>
<g><path style="opacity:0.776" fill="#868686" d="M 370.5,301.5 C 372.027,301.427 373.027,302.094 373.5,303.5C 371.973,303.573 370.973,302.906 370.5,301.5 Z"/></g>
<g><path style="opacity:0.373" fill="#a3a3a3" d="M 240.5,302.5 C 240.573,304.027 239.906,305.027 238.5,305.5C 238.427,303.973 239.094,302.973 240.5,302.5 Z"/></g>
<g><path style="opacity:0.373" fill="#a3a3a3" d="M 237.5,307.5 C 237.573,309.027 236.906,310.027 235.5,310.5C 235.427,308.973 236.094,307.973 237.5,307.5 Z"/></g>
<g><path style="opacity:0.953" fill="#616161" d="M 376.5,306.5 C 378.252,306.418 379.252,307.251 379.5,309C 379.252,310.749 378.252,311.582 376.5,311.5C 376.953,310.542 377.619,309.708 378.5,309C 377.619,308.292 376.953,307.458 376.5,306.5 Z"/></g>
<g><path style="opacity:0.373" fill="#a3a3a3" d="M 234.5,312.5 C 234.573,314.027 233.906,315.027 232.5,315.5C 232.427,313.973 233.094,312.973 234.5,312.5 Z"/></g>
<g><path style="opacity:0.878" fill="#696969" d="M 376.5,311.5 C 375.089,313.914 373.089,315.581 370.5,316.5C 371.911,314.086 373.911,312.419 376.5,311.5 Z"/></g>
<g><path style="opacity:0.961" fill="#8e8e8e" d="M 91.5,316.5 C 93.785,318.118 95.785,320.118 97.5,322.5C 94.5222,321.522 92.5222,319.522 91.5,316.5 Z"/></g>
<g><path style="opacity:0.373" fill="#a3a3a3" d="M 231.5,317.5 C 231.573,319.027 230.906,320.027 229.5,320.5C 229.427,318.973 230.094,317.973 231.5,317.5 Z"/></g>
<g><path style="opacity:0.953" fill="#575757" d="M 369.5,317.5 C 368.415,319.587 366.749,320.92 364.5,321.5C 365.585,319.413 367.251,318.08 369.5,317.5 Z"/></g>
<g><path style="opacity:0.8" fill="#898989" d="M 99.5,324.5 C 101.404,324.738 102.738,325.738 103.5,327.5C 101.596,327.262 100.262,326.262 99.5,324.5 Z"/></g>
<g><path style="opacity:0.373" fill="#a3a3a3" d="M 228.5,322.5 C 228.573,324.027 227.906,325.027 226.5,325.5C 226.427,323.973 227.094,322.973 228.5,322.5 Z"/></g>
<g><path style="opacity:0.945" fill="#595959" d="M 363.5,322.5 C 362.415,324.587 360.749,325.92 358.5,326.5C 359.585,324.413 361.251,323.08 363.5,322.5 Z"/></g>
<g><path style="opacity:0.8" fill="#898989" d="M 105.5,329.5 C 107.404,329.738 108.738,330.738 109.5,332.5C 107.596,332.262 106.262,331.262 105.5,329.5 Z"/></g>
<g><path style="opacity:0.373" fill="#a3a3a3" d="M 225.5,327.5 C 225.573,329.027 224.906,330.027 223.5,330.5C 223.427,328.973 224.094,327.973 225.5,327.5 Z"/></g>
<g><path style="opacity:0.945" fill="#5a5a5a" d="M 357.5,327.5 C 356.415,329.587 354.749,330.92 352.5,331.5C 353.585,329.413 355.251,328.08 357.5,327.5 Z"/></g>
<g><path style="opacity:0.8" fill="#898989" d="M 111.5,334.5 C 113.404,334.738 114.738,335.738 115.5,337.5C 113.596,337.262 112.262,336.262 111.5,334.5 Z"/></g>
<g><path style="opacity:0.373" fill="#a3a3a3" d="M 222.5,332.5 C 222.573,334.027 221.906,335.027 220.5,335.5C 220.427,333.973 221.094,332.973 222.5,332.5 Z"/></g>
<g><path style="opacity:0.945" fill="#5a5a5a" d="M 351.5,332.5 C 350.415,334.587 348.749,335.92 346.5,336.5C 347.585,334.413 349.251,333.08 351.5,332.5 Z"/></g>
<g><path style="opacity:0.8" fill="#898989" d="M 117.5,339.5 C 119.404,339.738 120.738,340.738 121.5,342.5C 119.596,342.262 118.262,341.262 117.5,339.5 Z"/></g>
<g><path style="opacity:0.373" fill="#a3a3a3" d="M 219.5,337.5 C 219.573,339.027 218.906,340.027 217.5,340.5C 217.427,338.973 218.094,337.973 219.5,337.5 Z"/></g>
<g><path style="opacity:0.945" fill="#5a5a5a" d="M 345.5,337.5 C 344.415,339.587 342.749,340.92 340.5,341.5C 341.585,339.413 343.251,338.08 345.5,337.5 Z"/></g>
<g><path style="opacity:0.8" fill="#898989" d="M 123.5,344.5 C 125.404,344.738 126.738,345.738 127.5,347.5C 125.596,347.262 124.262,346.262 123.5,344.5 Z"/></g>
<g><path style="opacity:0.373" fill="#a3a3a3" d="M 216.5,342.5 C 216.573,344.027 215.906,345.027 214.5,345.5C 214.427,343.973 215.094,342.973 216.5,342.5 Z"/></g>
<g><path style="opacity:0.945" fill="#5a5a5a" d="M 339.5,342.5 C 338.415,344.587 336.749,345.92 334.5,346.5C 335.585,344.413 337.251,343.08 339.5,342.5 Z"/></g>
<g><path style="opacity:0.816" fill="#8d8d8d" d="M 129.5,349.5 C 131.404,349.738 132.738,350.738 133.5,352.5C 131.596,352.262 130.262,351.262 129.5,349.5 Z"/></g>
<g><path style="opacity:0.373" fill="#a3a3a3" d="M 213.5,347.5 C 213.573,349.027 212.906,350.027 211.5,350.5C 211.427,348.973 212.094,347.973 213.5,347.5 Z"/></g>
<g><path style="opacity:0.898" fill="#626262" d="M 333.5,347.5 C 332.415,349.587 330.749,350.92 328.5,351.5C 329.585,349.413 331.251,348.08 333.5,347.5 Z"/></g>
<g><path style="opacity:0.4" fill="#a2a2a2" d="M 182.5,351.5 C 183.906,351.973 184.573,352.973 184.5,354.5C 183.094,354.027 182.427,353.027 182.5,351.5 Z"/></g>
<g><path style="opacity:0.408" fill="#a2a2a2" d="M 328.5,351.5 C 328.573,353.027 327.906,354.027 326.5,354.5C 326.427,352.973 327.094,351.973 328.5,351.5 Z"/></g>
<g><path style="opacity:0.8" fill="#898989" d="M 135.5,354.5 C 137.404,354.738 138.738,355.738 139.5,357.5C 137.596,357.262 136.262,356.262 135.5,354.5 Z"/></g>
<g><path style="opacity:0.812" fill="#878787" d="M 141.5,359.5 C 143.404,359.738 144.738,360.738 145.5,362.5C 143.596,362.262 142.262,361.262 141.5,359.5 Z"/></g>
<g><path style="opacity:0.812" fill="#878787" d="M 147.5,364.5 C 149.404,364.738 150.738,365.738 151.5,367.5C 149.596,367.262 148.262,366.262 147.5,364.5 Z"/></g>
<g><path style="opacity:0.812" fill="#8e8e8e" d="M 153.5,369.5 C 155.404,369.738 156.738,370.738 157.5,372.5C 155.596,372.262 154.262,371.262 153.5,369.5 Z"/></g>
<g><path style="opacity:0.729" fill="#989898" d="M 210.5,372.5 C 212.404,372.738 213.738,373.738 214.5,375.5C 212.596,375.262 211.262,374.262 210.5,372.5 Z"/></g>
<g><path style="opacity:0.4" fill="#a5a5a5" d="M 159.5,374.5 C 161.027,374.427 162.027,375.094 162.5,376.5C 160.973,376.573 159.973,375.906 159.5,374.5 Z"/></g>
<g><path style="opacity:0.804" fill="#888888" d="M 36.5,452.5 C 38.4044,452.738 39.7377,453.738 40.5,455.5C 38.5956,455.262 37.2623,454.262 36.5,452.5 Z"/></g>
</svg>
