<?xml version="1.0" encoding="UTF-8"?>
<!DOCTYPE svg PUBLIC "-//W3C//DTD SVG 1.1//EN" "http://www.w3.org/Graphics/SVG/1.1/DTD/svg11.dtd">
<svg xmlns="http://www.w3.org/2000/svg" version="1.1" width="512.000000pt" height="512.000000pt" viewBox="0 0 512.000000 512.000000" style="shape-rendering:geometricPrecision; text-rendering:geometricPrecision; image-rendering:optimizeQuality; fill-rule:evenodd; width: 40px; height: 40px; clip-rule:evenodd" xmlns:xlink="http://www.w3.org/1999/xlink">
<g><path style="opacity:0.939" fill="#000000" d="M 131.5,-0.5 C 248.5,-0.5 365.5,-0.5 482.5,-0.5C 497.167,4.16667 506.833,13.8333 511.5,28.5C 511.5,87.5 511.5,146.5 511.5,205.5C 507.015,220.15 497.349,229.65 482.5,234C 472.172,234.5 461.839,234.666 451.5,234.5C 451.667,307.167 451.5,379.834 451,452.5C 447.432,465.736 439.265,474.903 426.5,480C 402.216,481.294 377.883,481.961 353.5,482C 335.99,497.755 315.657,507.589 292.5,511.5C 282.833,511.5 273.167,511.5 263.5,511.5C 240.5,507.833 220.5,498 203.5,482C 175.118,481.967 146.785,481.3 118.5,480C 102.093,472.919 93.5935,460.419 93,442.5C 78.0516,448.232 62.5516,451.232 46.5,451.5C 40.027,450.772 33.527,450.105 27,449.5C 24.8255,449.166 22.9921,448.166 21.5,446.5C 15.4116,414.447 20.7449,384.447 37.5,356.5C 47.1124,352.942 51.2791,356.276 50,366.5C 40.0022,383.825 35.3355,402.491 36,422.5C 55.5,403 75,383.5 94.5,364C 99.4129,361.413 103.58,362.247 107,366.5C 107.79,369.634 107.457,372.634 106,375.5C 86.5,395 67,414.5 47.5,434C 99.4167,433.483 132.25,408.316 146,358.5C 148.214,346.274 149.048,333.941 148.5,321.5C 119.729,319.024 93.729,326.19 70.5,343C 63.7763,345.605 59.7763,343.439 58.5,336.5C 58.4035,334.074 59.0702,331.907 60.5,330C 70.1083,322.36 80.7749,316.527 92.5,312.5C 93.6658,301.515 93.8324,290.515 93,279.5C 86.9675,270.771 81.9675,261.438 78,251.5C 61.7372,258.411 44.9038,260.244 27.5,257C 18.8215,254.322 12.6549,248.822 9,240.5C 4.49206,231.145 1.3254,221.478 -0.5,211.5C -0.5,202.5 -0.5,193.5 -0.5,184.5C 10.8148,134.531 42.1481,107.864 93.5,104.5C 93.3334,82.4975 93.5,60.4975 94,38.5C 98.902,18.0996 111.402,5.09958 131.5,-0.5 Z M 140.5,14.5 C 241.169,14.1667 341.836,14.5 442.5,15.5C 438.227,21.8209 436.06,28.8209 436,36.5C 435.333,60.8333 435.333,85.1667 436,109.5C 438.23,116.463 442.73,118.296 449.5,115C 450.126,114.25 450.626,113.416 451,112.5C 451.053,85.1318 451.72,57.7984 453,30.5C 460.494,15.3154 471.66,11.482 486.5,19C 490.491,21.9889 493.324,25.8222 495,30.5C 495.667,88.1667 495.667,145.833 495,203.5C 492.167,210.333 487.333,215.167 480.5,218C 470.884,219.324 461.217,219.824 451.5,219.5C 451.667,192.831 451.5,166.165 451,139.5C 446.333,134.167 441.667,134.167 437,139.5C 436.667,140.833 436.333,142.167 436,143.5C 435.667,245.833 435.333,348.167 435,450.5C 432.167,457.333 427.333,462.167 420.5,465C 402.539,466.582 384.539,466.916 366.5,466C 374.221,455.013 374.387,443.847 367,432.5C 364.463,429.628 361.63,427.128 358.5,425C 309.577,406.803 260.577,388.803 211.5,371C 191.329,364.148 177.829,370.648 171,390.5C 167.683,418.065 173.85,443.232 189.5,466C 167.8,466.919 146.134,466.586 124.5,465C 111.345,458.851 106.678,448.684 110.5,434.5C 139.943,416.326 157.443,389.993 163,355.5C 164.51,343.205 164.843,330.872 164,318.5C 161.833,312.333 157.667,308.167 151.5,306C 137.437,305.102 123.437,305.602 109.5,307.5C 109.5,300.5 109.5,293.5 109.5,286.5C 115.853,287.099 121.853,285.932 127.5,283C 135.5,278.333 143.5,273.667 151.5,269C 163.092,258.382 165.592,245.882 159,231.5C 154.622,225.245 150.122,219.078 145.5,213C 157.446,203.391 166.78,191.724 173.5,178C 177.842,166.886 176.675,156.386 170,146.5C 155.29,124.964 135.124,111.631 109.5,106.5C 109.041,83.1142 109.541,59.7809 111,36.5C 116.54,23.1702 126.374,15.8369 140.5,14.5 Z M 86.5,120.5 C 116.551,119.941 140.051,131.941 157,156.5C 158.442,159.05 159.608,161.716 160.5,164.5C 159.293,171.579 156.46,177.912 152,183.5C 147.462,160.954 134.295,145.788 112.5,138C 103.837,137 100.337,140.833 102,149.5C 109.051,153.277 115.884,157.444 122.5,162C 133.307,170.433 137.14,181.266 134,194.5C 133.667,194.833 133.333,195.167 133,195.5C 120.835,173.335 103.001,166.835 79.5,176C 66.355,184.124 60.5217,195.957 62,211.5C 63.3162,218.783 65.8162,225.617 69.5,232C 56.0477,229.543 48.2144,221.376 46,207.5C 42.9903,180.341 54.157,161.841 79.5,152C 84.27,145.028 82.6033,140.194 74.5,137.5C 50.0693,145.098 35.236,161.432 30,186.5C 27.2871,202.977 30.2871,218.31 39,232.5C 42.2012,236.036 45.7012,239.203 49.5,242C 43.4149,242.861 37.4149,242.527 31.5,241C 29.4127,240.208 27.5793,239.041 26,237.5C 13.1869,213.319 12.1869,188.652 23,163.5C 37.0618,138.561 58.2284,124.227 86.5,120.5 Z M 93.5,187.5 C 101.959,186.813 108.792,189.813 114,196.5C 124.667,211.833 135.333,227.167 146,242.5C 147.219,247.898 145.719,252.398 141.5,256C 133.328,260.92 124.995,265.587 116.5,270C 111.331,271.295 106.831,270.128 103,266.5C 93.5201,247.052 85.0201,227.219 77.5,207C 79.0428,197.299 84.3762,190.799 93.5,187.5 Z M 194.5,384.5 C 197.247,384.187 199.914,384.52 202.5,385.5C 195.272,426.876 210.272,457.043 247.5,476C 282.387,488.236 312.553,481.069 338,454.5C 341.749,449.338 345.249,444.004 348.5,438.5C 355.039,441.699 357.206,446.699 355,453.5C 331.794,487.183 299.961,500.683 259.5,494C 221.667,484.167 197.833,460.333 188,422.5C 186.502,412.545 186.169,402.545 187,392.5C 188.353,388.65 190.853,385.983 194.5,384.5 Z M 217.5,390.5 C 256.141,404.266 294.474,418.599 332.5,433.5C 314.351,461.727 289.018,471.227 256.5,462C 234.914,452.742 221.748,436.576 217,413.5C 216.269,405.798 216.436,398.131 217.5,390.5 Z"/></g>
<g><path style="opacity:0.913" fill="#000000" d="M 204.5,39.5 C 223.502,37.3441 232.669,45.6774 232,64.5C 230.607,67.3661 228.274,68.6994 225,68.5C 223.033,68.4581 221.199,67.9581 219.5,67C 217.477,63.7678 215.977,60.2678 215,56.5C 211.961,55.034 209.128,55.3673 206.5,57.5C 206.135,66.0393 201.801,69.5393 193.5,68C 189.673,64.6923 188.506,60.5256 190,55.5C 191.947,47.3932 196.78,42.0599 204.5,39.5 Z"/></g>
<g><path style="opacity:0.913" fill="#000000" d="M 327.5,39.5 C 346.502,37.3441 355.669,45.6774 355,64.5C 353.607,67.3661 351.274,68.6994 348,68.5C 346.033,68.4581 344.199,67.9581 342.5,67C 340.477,63.7678 338.977,60.2678 338,56.5C 334.961,55.034 332.128,55.3673 329.5,57.5C 329.135,66.0393 324.801,69.5393 316.5,68C 312.673,64.6923 311.506,60.5256 313,55.5C 314.947,47.3932 319.78,42.0599 327.5,39.5 Z"/></g>
<g><path style="opacity:0.916" fill="#000000" d="M 240.5,64.5 C 243.32,64.2475 245.986,64.7475 248.5,66C 250.736,69.1454 252.236,72.6454 253,76.5C 256.333,80.5 259.667,80.5 263,76.5C 264,73.5 265,70.5 266,67.5C 270.333,63.5 274.667,63.5 279,67.5C 280,70.5 281,73.5 282,76.5C 285.333,80.5 288.667,80.5 292,76.5C 292.764,72.6454 294.264,69.1454 296.5,66C 306.607,63.1013 310.773,66.9346 309,77.5C 305.87,88.6294 298.537,94.6294 287,95.5C 281.892,94.7413 277.058,93.0747 272.5,90.5C 260.767,97.4095 249.933,96.0762 240,86.5C 235.932,80.5843 234.932,74.251 237,67.5C 238.145,66.3636 239.312,65.3636 240.5,64.5 Z"/></g>
<g><path style="opacity:0.87" fill="#000000" d="M 193.5,186.5 C 204.528,185.401 207.861,189.901 203.5,200C 194.479,203.949 189.979,201.116 190,191.5C 190.997,189.677 192.164,188.01 193.5,186.5 Z"/></g>
<g><path style="opacity:0.989" fill="#000000" d="M 230.5,186.5 C 276.835,186.333 323.168,186.5 369.5,187C 373.5,191.667 373.5,196.333 369.5,201C 323.167,201.667 276.833,201.667 230.5,201C 225.402,196.226 225.402,191.393 230.5,186.5 Z"/></g>
<g><path style="opacity:0.87" fill="#000000" d="M 193.5,226.5 C 204.528,225.401 207.861,229.901 203.5,240C 194.479,243.949 189.979,241.116 190,231.5C 190.997,229.677 192.164,228.01 193.5,226.5 Z"/></g>
<g><path style="opacity:0.989" fill="#000000" d="M 230.5,226.5 C 276.835,226.333 323.168,226.5 369.5,227C 373.5,231.667 373.5,236.333 369.5,241C 323.167,241.667 276.833,241.667 230.5,241C 225.402,236.226 225.402,231.393 230.5,226.5 Z"/></g>
<g><path style="opacity:0.87" fill="#000000" d="M 193.5,266.5 C 204.528,265.401 207.861,269.901 203.5,280C 194.479,283.949 189.979,281.116 190,271.5C 190.997,269.677 192.164,268.01 193.5,266.5 Z"/></g>
<g><path style="opacity:0.989" fill="#000000" d="M 230.5,266.5 C 276.835,266.333 323.168,266.5 369.5,267C 373.5,271.667 373.5,276.333 369.5,281C 323.167,281.667 276.833,281.667 230.5,281C 225.402,276.226 225.402,271.393 230.5,266.5 Z"/></g>
<g><path style="opacity:0.87" fill="#000000" d="M 193.5,306.5 C 204.528,305.401 207.861,309.901 203.5,320C 194.479,323.949 189.979,321.116 190,311.5C 190.997,309.677 192.164,308.01 193.5,306.5 Z"/></g>
<g><path style="opacity:0.989" fill="#000000" d="M 230.5,306.5 C 276.835,306.333 323.168,306.5 369.5,307C 373.5,311.667 373.5,316.333 369.5,321C 323.167,321.667 276.833,321.667 230.5,321C 225.402,316.226 225.402,311.393 230.5,306.5 Z"/></g>
<g><path style="opacity:0.856" fill="#000000" d="M 238.5,409.5 C 245.067,408.097 248.733,410.597 249.5,417C 249.419,422.249 246.752,425.082 241.5,425.5C 232.178,421.564 231.178,416.23 238.5,409.5 Z"/></g>
<g><path style="opacity:0.844" fill="#000000" d="M 294.5,429.5 C 302.658,428.823 306.158,432.49 305,440.5C 302.774,444.861 299.274,446.361 294.5,445C 290.139,442.774 288.639,439.274 290,434.5C 291.025,432.313 292.525,430.646 294.5,429.5 Z"/></g>
<g><path style="opacity:0.852" fill="#000000" d="M 261.5,432.5 C 270.778,431.376 274.278,435.376 272,444.5C 264.691,450.701 259.525,449.201 256.5,440C 256.844,436.511 258.51,434.011 261.5,432.5 Z"/></g>
</svg>
