<?xml version="1.0" encoding="UTF-8"?>
<!DOCTYPE svg PUBLIC "-//W3C//DTD SVG 1.1//EN" "http://www.w3.org/Graphics/SVG/1.1/DTD/svg11.dtd">
<svg xmlns="http://www.w3.org/2000/svg" version="1.1" width="512.000000pt" height="512.000000pt" viewBox="0 0 512.000000 512.000000" style="shape-rendering:geometricPrecision; text-rendering:geometricPrecision; image-rendering:optimizeQuality; fill-rule:evenodd; width: 40px; height: 40px; clip-rule:evenodd" xmlns:xlink="http://www.w3.org/1999/xlink">
<g><path style="opacity:1" fill="#0d1015" d="M 232.5,-0.5 C 247.833,-0.5 263.167,-0.5 278.5,-0.5C 344.883,6.52425 400.549,34.5242 445.5,83.5C 445.738,85.4044 446.738,86.7377 448.5,87.5C 450.167,88.5 451.5,89.8333 452.5,91.5C 452.427,93.0269 453.094,94.0269 454.5,94.5C 456.633,96.0905 458.299,98.0905 459.5,100.5C 459.427,102.027 460.094,103.027 461.5,103.5C 461.427,105.027 462.094,106.027 463.5,106.5C 465.262,107.262 466.262,108.596 466.5,110.5C 466.427,112.027 467.094,113.027 468.5,113.5C 468.427,115.027 469.094,116.027 470.5,116.5C 470.427,118.027 471.094,119.027 472.5,119.5C 482.256,133.679 489.923,149.012 495.5,165.5C 495.12,167.698 495.787,169.365 497.5,170.5C 498.566,172.701 499.233,175.035 499.5,177.5C 499.41,180.152 500.076,182.485 501.5,184.5C 501.41,187.152 502.076,189.485 503.5,191.5C 507.352,204.948 510.019,218.615 511.5,232.5C 511.5,247.833 511.5,263.167 511.5,278.5C 498.549,378.273 446.549,449.439 355.5,492C 330.316,502.296 304.316,508.796 277.5,511.5C 262.833,511.5 248.167,511.5 233.5,511.5C 219.306,509.912 205.306,507.245 191.5,503.5C 189.485,502.076 187.152,501.41 184.5,501.5C 167.555,497.354 151.555,491.021 136.5,482.5C 136.027,481.094 135.027,480.427 133.5,480.5C 128.5,478.336 123.833,475.669 119.5,472.5C 119.027,471.094 118.027,470.427 116.5,470.5C 116.027,469.094 115.027,468.427 113.5,468.5C 113.027,467.094 112.027,466.427 110.5,466.5C 109.738,464.738 108.404,463.738 106.5,463.5C 106.027,462.094 105.027,461.427 103.5,461.5C 103.027,460.094 102.027,459.427 100.5,459.5C 99.5,459.167 98.8333,458.5 98.5,457.5C 98.0269,456.094 97.0269,455.427 95.5,455.5C 94.5,455.167 93.8333,454.5 93.5,453.5C 92.7377,451.738 91.4044,450.738 89.5,450.5C 88.1667,449.833 87.1667,448.833 86.5,447.5C 85.7377,445.738 84.4044,444.738 82.5,444.5C 68.3902,432.561 56.3902,418.894 46.5,403.5C 46.4456,401.368 45.4456,400.035 43.5,399.5C 41.8079,397.795 40.4746,395.795 39.5,393.5C 39.7148,391.821 39.0481,390.821 37.5,390.5C 16.2414,356.057 3.5747,318.724 -0.5,278.5C -0.5,263.167 -0.5,247.833 -0.5,232.5C 0.981024,218.616 3.64769,204.95 7.5,191.5C 8.92381,189.485 9.59047,187.152 9.5,184.5C 10.9238,182.485 11.5905,180.152 11.5,177.5C 17.443,156.637 26.443,137.303 38.5,119.5C 39.9063,119.027 40.573,118.027 40.5,116.5C 41.9063,116.027 42.573,115.027 42.5,113.5C 43.9063,113.027 44.573,112.027 44.5,110.5C 45.7859,107.883 47.4525,105.55 49.5,103.5C 50.9063,103.027 51.573,102.027 51.5,100.5C 52.7007,98.0905 54.3674,96.0905 56.5,94.5C 57.9063,94.0269 58.573,93.0269 58.5,91.5C 59.5,89.8333 60.8333,88.5 62.5,87.5C 64.5869,86.4154 65.9202,84.7488 66.5,82.5C 68.8333,79.5 71.5,76.8333 74.5,74.5C 79.4397,71.2297 83.7731,67.2297 87.5,62.5C 90.4274,61.2427 92.7607,59.2427 94.5,56.5C 98.2389,52.432 102.572,49.0986 107.5,46.5C 109.027,46.573 110.027,45.9063 110.5,44.5C 112.147,42.6736 114.147,41.3403 116.5,40.5C 118.027,40.573 119.027,39.9063 119.5,38.5C 121.027,38.573 122.027,37.9063 122.5,36.5C 125.678,33.7417 129.345,31.7417 133.5,30.5C 135.027,30.573 136.027,29.9063 136.5,28.5C 145.743,23.3815 155.41,19.0482 165.5,15.5C 168.716,15.6545 171.383,14.6545 173.5,12.5C 173.833,12.5 174.167,12.5 174.5,12.5C 178.162,12.2766 181.495,11.2766 184.5,9.5C 187.152,9.59047 189.485,8.92381 191.5,7.5C 204.96,3.72051 218.627,1.05385 232.5,-0.5 Z M 374.5,56.5 C 374.973,57.9063 375.973,58.573 377.5,58.5C 378.899,59.8897 380.566,60.8897 382.5,61.5C 382.973,62.9063 383.973,63.573 385.5,63.5C 389.614,67.0642 393.948,70.3975 398.5,73.5C 398.973,74.9063 399.973,75.573 401.5,75.5C 401.833,76.5 402.5,77.1667 403.5,77.5C 404.262,79.2624 405.596,80.2624 407.5,80.5C 409.167,82.8333 411.167,84.8333 413.5,86.5C 414.911,88.914 416.911,90.5806 419.5,91.5C 419.5,91.8333 419.5,92.1667 419.5,92.5C 420.5,94.1667 421.833,95.5 423.5,96.5C 432.929,106.925 441.596,117.925 449.5,129.5C 450.026,131.23 451.026,132.564 452.5,133.5C 486.107,190.414 495.107,251.08 479.5,315.5C 478.076,317.515 477.41,319.848 477.5,322.5C 471.397,340.456 463.731,357.789 454.5,374.5C 453.094,374.973 452.427,375.973 452.5,377.5C 451.11,378.899 450.11,380.566 449.5,382.5C 448.094,382.973 447.427,383.973 447.5,385.5C 442.814,390.858 438.481,396.525 434.5,402.5C 432.738,403.262 431.738,404.596 431.5,406.5C 429.167,408.167 427.167,410.167 425.5,412.5C 421.167,416.5 416.833,420.5 412.5,424.5C 412.538,413.112 410.872,402.112 407.5,391.5C 407.59,388.848 406.924,386.515 405.5,384.5C 402.847,374.204 398.847,364.538 393.5,355.5C 393.573,353.973 392.906,352.973 391.5,352.5C 391.672,351.508 391.338,350.842 390.5,350.5C 390.573,348.973 389.906,347.973 388.5,347.5C 387.66,345.147 386.326,343.147 384.5,341.5C 384.573,339.973 383.906,338.973 382.5,338.5C 382.573,336.973 381.906,335.973 380.5,335.5C 380.167,334.5 379.5,333.833 378.5,333.5C 378.573,331.973 377.906,330.973 376.5,330.5C 375.833,329.167 374.833,328.167 373.5,327.5C 373.573,325.973 372.906,324.973 371.5,324.5C 353.74,305.109 332.407,290.942 307.5,282C 345.634,253.771 358.634,216.605 346.5,170.5C 346.204,168.597 345.537,166.93 344.5,165.5C 342.913,160.368 340.579,155.702 337.5,151.5C 337.573,149.973 336.906,148.973 335.5,148.5C 335.573,146.973 334.906,145.973 333.5,145.5C 333.573,143.973 332.906,142.973 331.5,142.5C 331.167,141.5 330.5,140.833 329.5,140.5C 329.573,138.973 328.906,137.973 327.5,137.5C 322.749,131.413 317.082,126.413 310.5,122.5C 309.564,121.026 308.23,120.026 306.5,119.5C 284.016,105.753 260.016,101.753 234.5,107.5C 231.848,107.41 229.515,108.076 227.5,109.5C 218.694,111.572 210.694,115.239 203.5,120.5C 201.973,120.427 200.973,121.094 200.5,122.5C 198.246,123.124 196.579,124.457 195.5,126.5C 192.236,128.094 189.569,130.427 187.5,133.5C 185.833,134.5 184.5,135.833 183.5,137.5C 182.094,137.973 181.427,138.973 181.5,140.5C 180.5,140.833 179.833,141.5 179.5,142.5C 178.094,142.973 177.427,143.973 177.5,145.5C 176.094,145.973 175.427,146.973 175.5,148.5C 174.094,148.973 173.427,149.973 173.5,151.5C 168.553,158.74 165.22,166.74 163.5,175.5C 162.076,177.515 161.41,179.848 161.5,182.5C 156.338,211.185 162.505,237.185 180,260.5C 181.371,262.041 182.871,263.375 184.5,264.5C 184.427,266.027 185.094,267.027 186.5,267.5C 187.585,269.587 189.251,270.92 191.5,271.5C 192.167,272.833 193.167,273.833 194.5,274.5C 194.973,275.906 195.973,276.573 197.5,276.5C 198.579,278.543 200.246,279.876 202.5,280.5C 202.833,281.167 203.167,281.833 203.5,282.5C 196.084,284.713 189.084,287.713 182.5,291.5C 180.973,291.427 179.973,292.094 179.5,293.5C 177.847,293.66 176.514,294.326 175.5,295.5C 173.973,295.427 172.973,296.094 172.5,297.5C 165.109,301.529 158.443,306.529 152.5,312.5C 149.573,313.757 147.239,315.757 145.5,318.5C 143.167,320.167 141.167,322.167 139.5,324.5C 137.738,325.262 136.738,326.596 136.5,328.5C 135.5,328.833 134.833,329.5 134.5,330.5C 133.094,330.973 132.427,331.973 132.5,333.5C 131.5,333.833 130.833,334.5 130.5,335.5C 129.094,335.973 128.427,336.973 128.5,338.5C 127.094,338.973 126.427,339.973 126.5,341.5C 124.674,343.147 123.34,345.147 122.5,347.5C 121.094,347.973 120.427,348.973 120.5,350.5C 119.662,350.842 119.328,351.508 119.5,352.5C 118.094,352.973 117.427,353.973 117.5,355.5C 112.153,364.538 108.153,374.204 105.5,384.5C 104.076,386.515 103.41,388.848 103.5,391.5C 101.034,398.508 99.7003,405.842 99.5,413.5C 98.6773,416.977 98.1773,420.644 98,424.5C 97.6174,423.944 97.1174,423.611 96.5,423.5C 93.1667,419.5 89.5,415.833 85.5,412.5C 83.8333,410.167 81.8333,408.167 79.5,406.5C 79.2624,404.596 78.2624,403.262 76.5,402.5C 75.2993,400.091 73.6326,398.091 71.5,396.5C 71.2624,394.596 70.2624,393.262 68.5,392.5C 67.2141,389.883 65.5475,387.55 63.5,385.5C 63.573,383.973 62.9063,382.973 61.5,382.5C 61.573,380.973 60.9063,379.973 59.5,379.5C 59.6716,378.508 59.3382,377.842 58.5,377.5C 58.573,375.973 57.9063,374.973 56.5,374.5C 56.6716,373.508 56.3382,372.842 55.5,372.5C 55.573,370.973 54.9063,369.973 53.5,369.5C 13.3685,293.421 13.5352,217.421 54,141.5C 99.8886,66.6133 167.055,27.2799 255.5,23.5C 298.043,24.384 337.71,35.384 374.5,56.5 Z M 293.5,140.5 C 293.973,141.906 294.973,142.573 296.5,142.5C 296.973,143.906 297.973,144.573 299.5,144.5C 304.872,149.87 309.872,155.537 314.5,161.5C 314.932,162.71 315.599,163.71 316.5,164.5C 332.979,197.816 328.312,227.816 302.5,254.5C 300.251,255.08 298.585,256.413 297.5,258.5C 295.566,259.11 293.899,260.11 292.5,261.5C 290.973,261.427 289.973,262.094 289.5,263.5C 286.982,264.264 284.649,265.264 282.5,266.5C 279.603,267.129 276.936,268.129 274.5,269.5C 255.585,273.86 237.585,271.526 220.5,262.5C 219.71,261.599 218.71,260.932 217.5,260.5C 211.8,256.646 206.467,252.312 201.5,247.5C 201.262,245.596 200.262,244.262 198.5,243.5C 194.56,236.619 190.893,229.619 187.5,222.5C 187.435,219.572 186.768,216.905 185.5,214.5C 181.318,176.351 196.651,149.518 231.5,134C 253.158,127.024 273.825,129.19 293.5,140.5 Z M 286.5,301.5 C 288.515,302.924 290.848,303.59 293.5,303.5C 302.997,306.91 312.331,310.91 321.5,315.5C 321.973,316.906 322.973,317.573 324.5,317.5C 329.129,320.821 333.796,324.154 338.5,327.5C 338.973,328.906 339.973,329.573 341.5,329.5C 375.599,360.612 390.765,399.278 387,445.5C 384.674,447.066 382.508,448.732 380.5,450.5C 378.973,450.427 377.973,451.094 377.5,452.5C 374.996,453.584 372.663,454.917 370.5,456.5C 368.973,456.427 367.973,457.094 367.5,458.5C 356.397,464.052 345.064,469.052 333.5,473.5C 329.605,474.462 325.939,475.796 322.5,477.5C 255.352,495.973 192.019,487.306 132.5,451.5C 131.71,450.599 130.71,449.932 129.5,449.5C 127.608,448.298 125.774,446.965 124,445.5C 120.511,382.286 147.011,336.786 203.5,309C 230.384,298.068 258.051,295.568 286.5,301.5 Z"/></g>
<g><path style="opacity:0.937" fill="#5c5e63" d="M 191.5,7.5 C 189.485,8.92381 187.152,9.59047 184.5,9.5C 186.515,8.07619 188.848,7.40953 191.5,7.5 Z"/></g>
<g><path style="opacity:0.925" fill="#5c5e63" d="M 184.5,9.5 C 181.495,11.2766 178.162,12.2766 174.5,12.5C 177.505,10.7234 180.838,9.7234 184.5,9.5 Z"/></g>
<g><path style="opacity:0.933" fill="#64666b" d="M 173.5,12.5 C 171.383,14.6545 168.716,15.6545 165.5,15.5C 167.936,14.129 170.603,13.129 173.5,12.5 Z"/></g>
<g><path style="opacity:0.808" fill="#7d7e83" d="M 136.5,28.5 C 136.027,29.9063 135.027,30.573 133.5,30.5C 133.973,29.0937 134.973,28.427 136.5,28.5 Z"/></g>
<g><path style="opacity:0.733" fill="#8b8c90" d="M 122.5,36.5 C 122.027,37.9063 121.027,38.573 119.5,38.5C 119.973,37.0937 120.973,36.427 122.5,36.5 Z"/></g>
<g><path style="opacity:0.78" fill="#828387" d="M 119.5,38.5 C 119.027,39.9063 118.027,40.573 116.5,40.5C 116.973,39.0937 117.973,38.427 119.5,38.5 Z"/></g>
<g><path style="opacity:0.769" fill="#828387" d="M 110.5,44.5 C 110.027,45.9063 109.027,46.573 107.5,46.5C 107.973,45.0937 108.973,44.427 110.5,44.5 Z"/></g>
<g><path style="opacity:0.4" fill="#9b9c9f" d="M 374.5,56.5 C 376.027,56.427 377.027,57.0937 377.5,58.5C 375.973,58.573 374.973,57.9063 374.5,56.5 Z"/></g>
<g><path style="opacity:0.882" fill="#606166" d="M 94.5,56.5 C 92.7607,59.2427 90.4274,61.2427 87.5,62.5C 89.2393,59.7573 91.5726,57.7573 94.5,56.5 Z"/></g>
<g><path style="opacity:0.584" fill="#7b7d81" d="M 382.5,61.5 C 384.027,61.427 385.027,62.0937 385.5,63.5C 383.973,63.573 382.973,62.9063 382.5,61.5 Z"/></g>
<g><path style="opacity:0.945" fill="#515358" d="M 87.5,62.5 C 83.7731,67.2297 79.4397,71.2297 74.5,74.5C 78.2269,69.7703 82.5603,65.7703 87.5,62.5 Z"/></g>
<g><path style="opacity:0.459" fill="#a1a2a5" d="M 398.5,73.5 C 400.027,73.427 401.027,74.0937 401.5,75.5C 399.973,75.573 398.973,74.9063 398.5,73.5 Z"/></g>
<g><path style="opacity:0.745" fill="#98999c" d="M 403.5,77.5 C 405.404,77.7376 406.738,78.7376 407.5,80.5C 405.596,80.2624 404.262,79.2624 403.5,77.5 Z"/></g>
<g><path style="opacity:0.761" fill="#95969a" d="M 445.5,83.5 C 447.262,84.2623 448.262,85.5956 448.5,87.5C 446.738,86.7377 445.738,85.4044 445.5,83.5 Z"/></g>
<g><path style="opacity:0.639" fill="#8f9194" d="M 66.5,82.5 C 65.9202,84.7488 64.5869,86.4154 62.5,87.5C 63.0798,85.2512 64.4131,83.5846 66.5,82.5 Z"/></g>
<g><path style="opacity:0.722" fill="#9e9fa2" d="M 413.5,86.5 C 416.089,87.4194 418.089,89.086 419.5,91.5C 416.911,90.5806 414.911,88.914 413.5,86.5 Z"/></g>
<g><path style="opacity:0.686" fill="#999b9e" d="M 58.5,91.5 C 58.573,93.0269 57.9063,94.0269 56.5,94.5C 56.427,92.9731 57.0937,91.9731 58.5,91.5 Z"/></g>
<g><path style="opacity:0.612" fill="#a9aaac" d="M 419.5,92.5 C 421.833,92.8333 423.167,94.1667 423.5,96.5C 421.833,95.5 420.5,94.1667 419.5,92.5 Z"/></g>
<g><path style="opacity:0.671" fill="#9c9ea1" d="M 452.5,91.5 C 453.906,91.9731 454.573,92.9731 454.5,94.5C 453.094,94.0269 452.427,93.0269 452.5,91.5 Z"/></g>
<g><path style="opacity:0.529" fill="#929397" d="M 51.5,100.5 C 51.573,102.027 50.9063,103.027 49.5,103.5C 49.427,101.973 50.0937,100.973 51.5,100.5 Z"/></g>
<g><path style="opacity:0.502" fill="#96979b" d="M 459.5,100.5 C 460.906,100.973 461.573,101.973 461.5,103.5C 460.094,103.027 459.427,102.027 459.5,100.5 Z"/></g>
<g><path style="opacity:0.635" fill="#77797d" d="M 461.5,103.5 C 462.906,103.973 463.573,104.973 463.5,106.5C 462.094,106.027 461.427,105.027 461.5,103.5 Z"/></g>
<g><path style="opacity:0.961" fill="#595a60" d="M 234.5,107.5 C 232.485,108.924 230.152,109.59 227.5,109.5C 229.515,108.076 231.848,107.41 234.5,107.5 Z"/></g>
<g><path style="opacity:0.604" fill="#7d7f83" d="M 44.5,110.5 C 44.573,112.027 43.9063,113.027 42.5,113.5C 42.427,111.973 43.0937,110.973 44.5,110.5 Z"/></g>
<g><path style="opacity:0.58" fill="#818386" d="M 466.5,110.5 C 467.906,110.973 468.573,111.973 468.5,113.5C 467.094,113.027 466.427,112.027 466.5,110.5 Z"/></g>
<g><path style="opacity:0.529" fill="#85878b" d="M 42.5,113.5 C 42.573,115.027 41.9063,116.027 40.5,116.5C 40.427,114.973 41.0937,113.973 42.5,113.5 Z"/></g>
<g><path style="opacity:0.502" fill="#8b8c90" d="M 468.5,113.5 C 469.906,113.973 470.573,114.973 470.5,116.5C 469.094,116.027 468.427,115.027 468.5,113.5 Z"/></g>
<g><path style="opacity:0.451" fill="#95969a" d="M 40.5,116.5 C 40.573,118.027 39.9063,119.027 38.5,119.5C 38.427,117.973 39.0937,116.973 40.5,116.5 Z"/></g>
<g><path style="opacity:0.416" fill="#9c9da0" d="M 470.5,116.5 C 471.906,116.973 472.573,117.973 472.5,119.5C 471.094,119.027 470.427,118.027 470.5,116.5 Z"/></g>
<g><path style="opacity:0.961" fill="#7c7d81" d="M 306.5,119.5 C 308.23,120.026 309.564,121.026 310.5,122.5C 308.368,122.446 307.035,121.446 306.5,119.5 Z"/></g>
<g><path style="opacity:0.769" fill="#84858a" d="M 203.5,120.5 C 203.027,121.906 202.027,122.573 200.5,122.5C 200.973,121.094 201.973,120.427 203.5,120.5 Z"/></g>
<g><path style="opacity:0.89" fill="#5c5e64" d="M 195.5,126.5 C 193.431,129.573 190.764,131.906 187.5,133.5C 189.569,130.427 192.236,128.094 195.5,126.5 Z"/></g>
<g><path style="opacity:0.937" fill="#818286" d="M 449.5,129.5 C 451.446,130.035 452.446,131.368 452.5,133.5C 451.026,132.564 450.026,131.23 449.5,129.5 Z"/></g>
<g><path style="opacity:0.749" fill="#8a8b8f" d="M 183.5,137.5 C 183.573,139.027 182.906,140.027 181.5,140.5C 181.427,138.973 182.094,137.973 183.5,137.5 Z"/></g>
<g><path style="opacity:0.71" fill="#929397" d="M 327.5,137.5 C 328.906,137.973 329.573,138.973 329.5,140.5C 328.094,140.027 327.427,139.027 327.5,137.5 Z"/></g>
<g><path style="opacity:0.455" fill="#999a9d" d="M 293.5,140.5 C 295.027,140.427 296.027,141.094 296.5,142.5C 294.973,142.573 293.973,141.906 293.5,140.5 Z"/></g>
<g><path style="opacity:0.62" fill="#7c7d82" d="M 296.5,142.5 C 298.027,142.427 299.027,143.094 299.5,144.5C 297.973,144.573 296.973,143.906 296.5,142.5 Z"/></g>
<g><path style="opacity:0.455" fill="#9c9da0" d="M 179.5,142.5 C 179.573,144.027 178.906,145.027 177.5,145.5C 177.427,143.973 178.094,142.973 179.5,142.5 Z"/></g>
<g><path style="opacity:0.416" fill="#a4a5a8" d="M 331.5,142.5 C 332.906,142.973 333.573,143.973 333.5,145.5C 332.094,145.027 331.427,144.027 331.5,142.5 Z"/></g>
<g><path style="opacity:0.529" fill="#888a8d" d="M 177.5,145.5 C 177.573,147.027 176.906,148.027 175.5,148.5C 175.427,146.973 176.094,145.973 177.5,145.5 Z"/></g>
<g><path style="opacity:0.49" fill="#909194" d="M 333.5,145.5 C 334.906,145.973 335.573,146.973 335.5,148.5C 334.094,148.027 333.427,147.027 333.5,145.5 Z"/></g>
<g><path style="opacity:0.443" fill="#949599" d="M 175.5,148.5 C 175.573,150.027 174.906,151.027 173.5,151.5C 173.427,149.973 174.094,148.973 175.5,148.5 Z"/></g>
<g><path style="opacity:0.4" fill="#9c9da0" d="M 335.5,148.5 C 336.906,148.973 337.573,149.973 337.5,151.5C 336.094,151.027 335.427,150.027 335.5,148.5 Z"/></g>
<g><path style="opacity:0.941" fill="#7c7e82" d="M 314.5,161.5 C 316.048,161.821 316.715,162.821 316.5,164.5C 315.599,163.71 314.932,162.71 314.5,161.5 Z"/></g>
<g><path style="opacity:0.933" fill="#787a7e" d="M 344.5,165.5 C 345.537,166.93 346.204,168.597 346.5,170.5C 344.787,169.365 344.12,167.698 344.5,165.5 Z"/></g>
<g><path style="opacity:0.933" fill="#787a7e" d="M 495.5,165.5 C 496.537,166.93 497.204,168.597 497.5,170.5C 495.787,169.365 495.12,167.698 495.5,165.5 Z"/></g>
<g><path style="opacity:0.949" fill="#64666a" d="M 11.5,177.5 C 11.5905,180.152 10.9238,182.485 9.5,184.5C 9.40953,181.848 10.0762,179.515 11.5,177.5 Z"/></g>
<g><path style="opacity:0.929" fill="#6c6e73" d="M 499.5,177.5 C 500.924,179.515 501.59,181.848 501.5,184.5C 500.076,182.485 499.41,180.152 499.5,177.5 Z"/></g>
<g><path style="opacity:0.576" fill="#848589" d="M 163.5,175.5 C 163.59,178.152 162.924,180.485 161.5,182.5C 161.41,179.848 162.076,177.515 163.5,175.5 Z"/></g>
<g><path style="opacity:0.804" fill="#64656a" d="M 9.5,184.5 C 9.59047,187.152 8.92381,189.485 7.5,191.5C 7.40953,188.848 8.07619,186.515 9.5,184.5 Z"/></g>
<g><path style="opacity:0.757" fill="#6d6f74" d="M 501.5,184.5 C 502.924,186.515 503.59,188.848 503.5,191.5C 502.076,189.485 501.41,187.152 501.5,184.5 Z"/></g>
<g><path style="opacity:0.961" fill="#67696e" d="M 185.5,214.5 C 186.768,216.905 187.435,219.572 187.5,222.5C 185.96,220.162 185.294,217.495 185.5,214.5 Z"/></g>
<g><path style="opacity:0.871" fill="#7b7d81" d="M 198.5,243.5 C 200.262,244.262 201.262,245.596 201.5,247.5C 199.738,246.738 198.738,245.404 198.5,243.5 Z"/></g>
<g><path style="opacity:0.957" fill="#595b60" d="M 302.5,254.5 C 301.415,256.587 299.749,257.92 297.5,258.5C 298.585,256.413 300.251,255.08 302.5,254.5 Z"/></g>
<g><path style="opacity:0.906" fill="#84858a" d="M 217.5,260.5 C 218.71,260.932 219.71,261.599 220.5,262.5C 218.821,262.715 217.821,262.048 217.5,260.5 Z"/></g>
<g><path style="opacity:0.78" fill="#808186" d="M 292.5,261.5 C 292.027,262.906 291.027,263.573 289.5,263.5C 289.973,262.094 290.973,261.427 292.5,261.5 Z"/></g>
<g><path style="opacity:0.004" fill="#c2c2c4" d="M 184.5,264.5 C 185.906,264.973 186.573,265.973 186.5,267.5C 185.094,267.027 184.427,266.027 184.5,264.5 Z"/></g>
<g><path style="opacity:0.659" fill="#a2a3a6" d="M 186.5,267.5 C 188.749,268.08 190.415,269.413 191.5,271.5C 189.251,270.92 187.585,269.587 186.5,267.5 Z"/></g>
<g><path style="opacity:0.961" fill="#585a5e" d="M 282.5,266.5 C 280.383,268.655 277.716,269.655 274.5,269.5C 276.936,268.129 279.603,267.129 282.5,266.5 Z"/></g>
<g><path style="opacity:0.569" fill="#898a8e" d="M 194.5,274.5 C 196.027,274.427 197.027,275.094 197.5,276.5C 195.973,276.573 194.973,275.906 194.5,274.5 Z"/></g>
<g><path style="opacity:0.502" fill="#adaeb0" d="M 202.5,280.5 C 205.46,281.032 205.793,281.699 203.5,282.5C 203.167,281.833 202.833,281.167 202.5,280.5 Z"/></g>
<g><path style="opacity:0.769" fill="#848589" d="M 182.5,291.5 C 182.027,292.906 181.027,293.573 179.5,293.5C 179.973,292.094 180.973,291.427 182.5,291.5 Z"/></g>
<g><path style="opacity:0.776" fill="#838489" d="M 175.5,295.5 C 175.027,296.906 174.027,297.573 172.5,297.5C 172.973,296.094 173.973,295.427 175.5,295.5 Z"/></g>
<g><path style="opacity:0.91" fill="#6e6f74" d="M 286.5,301.5 C 289.152,301.41 291.485,302.076 293.5,303.5C 290.848,303.59 288.515,302.924 286.5,301.5 Z"/></g>
<g><path style="opacity:0.788" fill="#727378" d="M 152.5,312.5 C 150.761,315.243 148.427,317.243 145.5,318.5C 147.239,315.757 149.573,313.757 152.5,312.5 Z"/></g>
<g><path style="opacity:0.404" fill="#98999c" d="M 321.5,315.5 C 323.027,315.427 324.027,316.094 324.5,317.5C 322.973,317.573 321.973,316.906 321.5,315.5 Z"/></g>
<g><path style="opacity:0.898" fill="#727378" d="M 479.5,315.5 C 479.59,318.152 478.924,320.485 477.5,322.5C 477.41,319.848 478.076,317.515 479.5,315.5 Z"/></g>
<g><path style="opacity:0.678" fill="#999a9d" d="M 139.5,324.5 C 139.262,326.404 138.262,327.738 136.5,328.5C 136.738,326.596 137.738,325.262 139.5,324.5 Z"/></g>
<g><path style="opacity:0.694" fill="#939498" d="M 371.5,324.5 C 372.906,324.973 373.573,325.973 373.5,327.5C 372.094,327.027 371.427,326.027 371.5,324.5 Z"/></g>
<g><path style="opacity:0.737" fill="#8d8e92" d="M 338.5,327.5 C 340.027,327.427 341.027,328.094 341.5,329.5C 339.973,329.573 338.973,328.906 338.5,327.5 Z"/></g>
<g><path style="opacity:0.82" fill="#7e7f84" d="M 134.5,330.5 C 134.573,332.027 133.906,333.027 132.5,333.5C 132.427,331.973 133.094,330.973 134.5,330.5 Z"/></g>
<g><path style="opacity:0.808" fill="#7e8084" d="M 376.5,330.5 C 377.906,330.973 378.573,331.973 378.5,333.5C 377.094,333.027 376.427,332.027 376.5,330.5 Z"/></g>
<g><path style="opacity:0.475" fill="#999a9d" d="M 130.5,335.5 C 130.573,337.027 129.906,338.027 128.5,338.5C 128.427,336.973 129.094,335.973 130.5,335.5 Z"/></g>
<g><path style="opacity:0.467" fill="#9a9b9f" d="M 380.5,335.5 C 381.906,335.973 382.573,336.973 382.5,338.5C 381.094,338.027 380.427,337.027 380.5,335.5 Z"/></g>
<g><path style="opacity:0.651" fill="#78797e" d="M 128.5,338.5 C 128.573,340.027 127.906,341.027 126.5,341.5C 126.427,339.973 127.094,338.973 128.5,338.5 Z"/></g>
<g><path style="opacity:0.635" fill="#787a7e" d="M 382.5,338.5 C 383.906,338.973 384.573,339.973 384.5,341.5C 383.094,341.027 382.427,340.027 382.5,338.5 Z"/></g>
<g><path style="opacity:0.494" fill="#8a8c8f" d="M 122.5,347.5 C 122.573,349.027 121.906,350.027 120.5,350.5C 120.427,348.973 121.094,347.973 122.5,347.5 Z"/></g>
<g><path style="opacity:0.471" fill="#8e8f93" d="M 388.5,347.5 C 389.906,347.973 390.573,348.973 390.5,350.5C 389.094,350.027 388.427,349.027 388.5,347.5 Z"/></g>
<g><path style="opacity:0.376" fill="#9b9ca0" d="M 119.5,352.5 C 119.573,354.027 118.906,355.027 117.5,355.5C 117.427,353.973 118.094,352.973 119.5,352.5 Z"/></g>
<g><path style="opacity:0.361" fill="#9fa0a3" d="M 391.5,352.5 C 392.906,352.973 393.573,353.973 393.5,355.5C 392.094,355.027 391.427,354.027 391.5,352.5 Z"/></g>
<g><path style="opacity:0.427" fill="#939498" d="M 53.5,369.5 C 54.9063,369.973 55.573,370.973 55.5,372.5C 54.0937,372.027 53.427,371.027 53.5,369.5 Z"/></g>
<g><path style="opacity:0.42" fill="#999a9e" d="M 56.5,374.5 C 57.9063,374.973 58.573,375.973 58.5,377.5C 57.0937,377.027 56.427,376.027 56.5,374.5 Z"/></g>
<g><path style="opacity:0.455" fill="#929397" d="M 454.5,374.5 C 454.573,376.027 453.906,377.027 452.5,377.5C 452.427,375.973 453.094,374.973 454.5,374.5 Z"/></g>
<g><path style="opacity:0.592" fill="#797b7f" d="M 59.5,379.5 C 60.9063,379.973 61.573,380.973 61.5,382.5C 60.0937,382.027 59.427,381.027 59.5,379.5 Z"/></g>
<g><path style="opacity:0.569" fill="#7f8185" d="M 61.5,382.5 C 62.9063,382.973 63.573,383.973 63.5,385.5C 62.0937,385.027 61.427,384.027 61.5,382.5 Z"/></g>
<g><path style="opacity:0.596" fill="#7a7c81" d="M 449.5,382.5 C 449.573,384.027 448.906,385.027 447.5,385.5C 447.427,383.973 448.094,382.973 449.5,382.5 Z"/></g>
<g><path style="opacity:0.957" fill="#616368" d="M 105.5,384.5 C 105.59,387.152 104.924,389.485 103.5,391.5C 103.41,388.848 104.076,386.515 105.5,384.5 Z"/></g>
<g><path style="opacity:0.949" fill="#65676c" d="M 405.5,384.5 C 406.924,386.515 407.59,388.848 407.5,391.5C 406.076,389.485 405.41,387.152 405.5,384.5 Z"/></g>
<g><path style="opacity:0.945" fill="#7b7c81" d="M 37.5,390.5 C 39.0481,390.821 39.7148,391.821 39.5,393.5C 38.5987,392.71 37.9321,391.71 37.5,390.5 Z"/></g>
<g><path style="opacity:0.894" fill="#787a7f" d="M 68.5,392.5 C 70.2624,393.262 71.2624,394.596 71.5,396.5C 69.7376,395.738 68.7376,394.404 68.5,392.5 Z"/></g>
<g><path style="opacity:0.976" fill="#7a7b7f" d="M 43.5,399.5 C 45.4456,400.035 46.4456,401.368 46.5,403.5C 45.0256,402.564 44.0256,401.23 43.5,399.5 Z"/></g>
<g><path style="opacity:0.824" fill="#86878c" d="M 76.5,402.5 C 78.2624,403.262 79.2624,404.596 79.5,406.5C 77.7376,405.738 76.7376,404.404 76.5,402.5 Z"/></g>
<g><path style="opacity:0.831" fill="#808185" d="M 434.5,402.5 C 434.262,404.404 433.262,405.738 431.5,406.5C 431.738,404.596 432.738,403.262 434.5,402.5 Z"/></g>
<g><path style="opacity:0.714" fill="#a8a9ab" d="M 85.5,412.5 C 89.5,415.833 93.1667,419.5 96.5,423.5C 91.8333,420.833 88.1667,417.167 85.5,412.5 Z"/></g>
<g><path style="opacity:0.608" fill="#7d7e83" d="M 99.5,413.5 C 99.5,417.5 99.5,421.5 99.5,425.5C 97.8212,425.715 96.8212,425.048 96.5,423.5C 97.1174,423.611 97.6174,423.944 98,424.5C 98.1773,420.644 98.6773,416.977 99.5,413.5 Z"/></g>
<g><path style="opacity:0.58" fill="#96989b" d="M 425.5,412.5 C 422.437,417.072 418.77,421.239 414.5,425C 413.563,425.692 412.897,425.525 412.5,424.5C 416.833,420.5 421.167,416.5 425.5,412.5 Z"/></g>
<g><path style="opacity:0.816" fill="#898a8e" d="M 82.5,444.5 C 84.4044,444.738 85.7377,445.738 86.5,447.5C 84.5956,447.262 83.2623,446.262 82.5,444.5 Z"/></g>
<g><path style="opacity:0.855" fill="#7f8185" d="M 89.5,450.5 C 91.4044,450.738 92.7377,451.738 93.5,453.5C 91.5956,453.262 90.2623,452.262 89.5,450.5 Z"/></g>
<g><path style="opacity:0.929" fill="#7f8185" d="M 129.5,449.5 C 130.71,449.932 131.71,450.599 132.5,451.5C 130.821,451.715 129.821,451.048 129.5,449.5 Z"/></g>
<g><path style="opacity:0.725" fill="#8c8d91" d="M 380.5,450.5 C 380.027,451.906 379.027,452.573 377.5,452.5C 377.973,451.094 378.973,450.427 380.5,450.5 Z"/></g>
<g><path style="opacity:0.533" fill="#909195" d="M 95.5,455.5 C 97.0269,455.427 98.0269,456.094 98.5,457.5C 96.9731,457.573 95.9731,456.906 95.5,455.5 Z"/></g>
<g><path style="opacity:0.776" fill="#838589" d="M 370.5,456.5 C 370.027,457.906 369.027,458.573 367.5,458.5C 367.973,457.094 368.973,456.427 370.5,456.5 Z"/></g>
<g><path style="opacity:0.463" fill="#9d9ea1" d="M 100.5,459.5 C 102.027,459.427 103.027,460.094 103.5,461.5C 101.973,461.573 100.973,460.906 100.5,459.5 Z"/></g>
<g><path style="opacity:0.569" fill="#85868a" d="M 103.5,461.5 C 105.027,461.427 106.027,462.094 106.5,463.5C 104.973,463.573 103.973,462.906 103.5,461.5 Z"/></g>
<g><path style="opacity:0.71" fill="#7b7c81" d="M 106.5,463.5 C 108.404,463.738 109.738,464.738 110.5,466.5C 108.596,466.262 107.262,465.262 106.5,463.5 Z"/></g>
<g><path style="opacity:0.541" fill="#898a8e" d="M 110.5,466.5 C 112.027,466.427 113.027,467.094 113.5,468.5C 111.973,468.573 110.973,467.906 110.5,466.5 Z"/></g>
<g><path style="opacity:0.435" fill="#97989c" d="M 113.5,468.5 C 115.027,468.427 116.027,469.094 116.5,470.5C 114.973,470.573 113.973,469.906 113.5,468.5 Z"/></g>
<g><path style="opacity:0.369" fill="#a4a5a8" d="M 116.5,470.5 C 118.027,470.427 119.027,471.094 119.5,472.5C 117.973,472.573 116.973,471.906 116.5,470.5 Z"/></g>
<g><path style="opacity:0.973" fill="#56575c" d="M 333.5,473.5 C 330.374,475.99 326.708,477.323 322.5,477.5C 325.939,475.796 329.605,474.462 333.5,473.5 Z"/></g>
<g><path style="opacity:0.314" fill="#a7a8aa" d="M 133.5,480.5 C 135.027,480.427 136.027,481.094 136.5,482.5C 134.973,482.573 133.973,481.906 133.5,480.5 Z"/></g>
<g><path style="opacity:0.737" fill="#737479" d="M 184.5,501.5 C 187.152,501.41 189.485,502.076 191.5,503.5C 188.848,503.59 186.515,502.924 184.5,501.5 Z"/></g>
</svg>
