<?xml version="1.0" standalone="no"?>
<!DOCTYPE svg PUBLIC "-//W3C//DTD SVG 20010904//EN"
 "http://www.w3.org/TR/2001/REC-SVG-20010904/DTD/svg10.dtd">
<svg version="1.0" xmlns="http://www.w3.org/2000/svg"
 width="512.000000pt" height="512.000000pt" viewBox="0 0 512.000000 512.000000"
 preserveAspectRatio="xMidYMid meet" style=" width: 20px; height: 20px;">

<g transform="translate(0.000000,512.000000) scale(0.100000,-0.100000)"
fill="#000000" stroke="none">
<path d="M892 5100 c-99 -26 -174 -71 -252 -149 -77 -79 -114 -142 -140 -247
-20 -76 -20 -118 -20 -2144 0 -2029 0 -2068 20 -2144 25 -101 69 -176 144
-252 76 -75 151 -119 252 -144 75 -20 114 -20 1658 -20 1753 0 1655 -3 1789
67 128 67 229 193 274 338 17 57 18 141 18 1745 0 1390 -2 1695 -14 1740 -18
73 -65 170 -107 219 l-34 39 0 335 0 335 35 6 c49 9 102 59 115 107 20 73 -21
151 -93 178 -20 8 -571 11 -1800 10 -1715 0 -1774 -1 -1845 -19z m3288 -532
l0 -253 -1597 2 c-1439 3 -1602 4 -1641 19 -168 63 -215 282 -87 409 79 79
-59 73 1728 74 l1597 1 0 -252z m-1655 -548 c1467 -5 1623 -7 1656 -21 53 -25
104 -74 130 -127 l24 -47 0 -1660 c0 -1380 -2 -1667 -14 -1699 -17 -49 -73
-111 -125 -139 l-41 -22 -1580 -3 c-1776 -3 -1637 -8 -1719 74 -83 82 -76 -82
-76 1920 l0 1782 63 -27 62 -26 1620 -5z"/>
<path d="M2383 3411 c-116 -32 -242 -101 -307 -170 -25 -26 -37 -31 -75 -31
-116 0 -268 -42 -369 -102 -129 -76 -264 -243 -311 -383 -126 -381 91 -800
472 -910 l57 -16 0 -406 c0 -383 1 -407 19 -437 11 -17 35 -40 53 -51 32 -19
51 -20 640 -20 597 0 607 0 634 21 15 11 37 33 48 48 20 27 21 41 24 436 l3
409 57 16 c163 47 322 175 412 330 83 145 112 353 71 515 -12 46 -34 111 -50
145 -106 225 -341 383 -600 401 -79 6 -89 9 -121 39 -72 66 -164 119 -270 155
-95 32 -288 38 -387 11z m352 -320 c45 -23 89 -56 134 -101 88 -90 97 -94 193
-85 147 12 266 -32 363 -136 184 -199 116 -533 -132 -646 -31 -14 -94 -31
-145 -38 -157 -21 -178 -52 -178 -267 l0 -148 -409 0 -409 0 -4 153 c-3 136
-5 156 -25 187 -31 49 -52 59 -159 75 -113 17 -191 54 -258 121 -161 160 -161
418 -1 579 92 92 206 132 342 119 98 -9 130 4 192 76 94 107 196 152 337 147
79 -2 100 -7 159 -36z m235 -1816 l0 -95 -410 0 -410 0 0 95 0 95 410 0 410 0
0 -95z"/>
</g>
</svg>
