<?xml version="1.0" standalone="no"?>
<!DOCTYPE svg PUBLIC "-//W3C//DTD SVG 20010904//EN"
 "http://www.w3.org/TR/2001/REC-SVG-20010904/DTD/svg10.dtd">
<svg version="1.0" xmlns="http://www.w3.org/2000/svg"
 width="512.000000pt" height="512.000000pt" viewBox="0 0 512.000000 512.000000"
 preserveAspectRatio="xMidYMid meet" style=" width: 20px; height: 20px;">

<g transform="translate(0.000000,512.000000) scale(0.100000,-0.100000)"
fill="#000000" stroke="none">
<path d="M1307 4471 c-617 -224 -909 -335 -932 -354 -20 -16 -39 -43 -45 -65
-8 -26 -10 -252 -7 -777 4 -797 4 -802 62 -1056 174 -772 712 -1432 1434
-1760 165 -75 364 -142 421 -142 27 0 95 16 167 41 238 80 314 128 329 208 14
78 -40 163 -116 184 -43 12 -109 0 -170 -30 -19 -10 -75 -32 -124 -49 l-89
-31 -91 31 c-822 284 -1411 1033 -1495 1903 -7 64 -11 362 -11 712 l0 602 42
15 c24 8 384 139 801 291 l758 276 772 -281 c424 -155 784 -286 799 -291 l28
-10 2 -613 c3 -602 3 -614 24 -641 39 -53 71 -69 134 -69 63 0 95 16 134 69
21 27 21 39 24 704 2 443 -1 689 -7 712 -22 75 -9 69 -974 420 -530 193 -921
330 -940 329 -17 0 -436 -148 -930 -328z"/>
<path d="M2068 3825 c-303 -74 -528 -345 -545 -656 -9 -160 34 -324 116 -441
l38 -54 -65 -35 c-82 -43 -195 -153 -245 -239 -68 -117 -82 -181 -82 -372 0
-182 3 -193 69 -242 39 -29 133 -29 172 0 63 47 68 63 75 227 5 132 9 159 30
202 30 63 90 123 154 155 l50 25 405 0 c404 0 405 0 452 -23 25 -13 68 -44 95
-69 80 -77 138 -90 213 -50 84 44 108 156 50 235 -35 49 -125 121 -197 159
l-51 27 30 43 c83 121 123 253 122 408 0 131 -18 207 -73 320 -93 188 -260
322 -467 375 -92 24 -258 26 -346 5z m336 -343 c91 -42 149 -100 194 -190 35
-72 37 -81 37 -172 0 -91 -2 -100 -37 -172 -45 -91 -103 -147 -196 -191 -61
-29 -76 -32 -162 -32 -86 0 -101 3 -162 32 -93 44 -151 100 -196 191 -35 72
-37 81 -37 171 0 87 3 102 32 163 40 85 97 147 172 186 78 42 122 52 213 48
61 -3 92 -11 142 -34z"/>
<path d="M3697 2229 c-128 -19 -291 -83 -406 -161 -82 -55 -222 -207 -272
-293 -103 -179 -134 -295 -133 -495 0 -160 13 -229 65 -359 46 -114 114 -216
209 -312 132 -135 287 -222 471 -266 114 -27 328 -25 439 5 188 51 309 121
445 257 136 137 206 258 257 445 31 118 32 347 0 461 -103 376 -397 649 -769
714 -92 16 -213 18 -306 4z m277 -324 c289 -61 506 -329 506 -625 0 -297 -218
-565 -510 -626 -94 -20 -229 -14 -320 15 -312 98 -503 425 -435 745 72 341
416 564 759 491z"/>
<path d="M4020 1589 c-14 -5 -78 -62 -142 -126 l-117 -117 -45 42 c-74 68
-161 69 -227 3 -41 -41 -55 -88 -44 -148 5 -31 28 -60 123 -155 126 -125 149
-138 230 -123 31 5 67 36 234 203 211 211 219 224 204 307 -17 91 -127 149
-216 114z"/>
</g>
</svg>
