<?xml version="1.0" standalone="no"?>
<!DOCTYPE svg PUBLIC "-//W3C//DTD SVG 20010904//EN"
 "http://www.w3.org/TR/2001/REC-SVG-20010904/DTD/svg10.dtd">
<svg version="1.0" xmlns="http://www.w3.org/2000/svg"
 width="512.000000pt" height="512.000000pt" viewBox="0 0 512.000000 512.000000"
 preserveAspectRatio="xMidYMid meet" style=" width: 20px; height: 20px;">

<g transform="translate(0.000000,512.000000) scale(0.100000,-0.100000)"
fill="#000000" stroke="none">
<path d="M1550 4674 c-178 -47 -335 -175 -415 -339 -70 -141 -66 -20 -63
-1801 l3 -1609 26 -67 c74 -190 207 -323 397 -397 l67 -26 985 0 985 0 70 22
c195 62 356 223 418 418 l22 70 0 1625 0 1625 -26 67 c-74 191 -206 323 -397
397 l-67 26 -975 2 c-826 2 -983 0 -1030 -13z m1918 -416 c64 -16 134 -86 150
-150 9 -35 12 -355 12 -1222 l0 -1176 -1070 0 -1070 0 0 1178 c0 1332 -5 1250
76 1320 24 22 61 45 82 50 57 15 1760 15 1820 0z"/>
</g>
</svg>
