<?xml version="1.0" standalone="no"?>
<!DOCTYPE svg PUBLIC "-//W3C//DTD SVG 20010904//EN"
 "http://www.w3.org/TR/2001/REC-SVG-20010904/DTD/svg10.dtd">
<svg version="1.0" xmlns="http://www.w3.org/2000/svg"
 width="512.000000pt" height="512.000000pt" viewBox="0 0 512.000000 512.000000"
 preserveAspectRatio="xMidYMid meet" style=" width: 20px; height: 20px;">

<g transform="translate(0.000000,512.000000) scale(0.100000,-0.100000)"
fill="#000000" stroke="none">
<path d="M853 3728 c3 -576 8 -913 16 -968 87 -653 346 -1193 786 -1636 233
-234 449 -390 742 -536 l162 -80 143 69 c152 74 317 172 433 257 563 417 950
1028 1080 1708 47 246 47 264 52 1186 l4 882 -1711 0 -1711 0 4 -882z m3075
-18 c3 -604 -6 -860 -38 -1045 -96 -561 -379 -1066 -803 -1431 -120 -103 -325
-244 -450 -309 l-77 -40 -77 40 c-505 264 -906 716 -1122 1265 -93 236 -145
480 -161 760 -11 186 -14 1303 -3 1313 3 4 619 6 1367 5 l1361 -3 3 -555z"/>
<path d="M2500 3919 c-304 -34 -512 -337 -435 -632 35 -134 133 -257 255 -321
l70 -37 0 -610 0 -609 300 0 300 0 0 170 0 170 -130 0 -130 0 0 125 0 124 128
3 127 3 0 170 0 170 -127 3 -128 3 0 139 0 139 70 37 c81 42 176 137 215 214
100 198 63 434 -94 591 -116 116 -261 167 -421 148z m158 -368 c89 -63 95
-195 13 -264 -69 -58 -153 -58 -222 0 -93 78 -70 236 41 282 42 18 132 8 168
-18z"/>
</g>
</svg>
