<?xml version="1.0" standalone="no"?>
<!DOCTYPE svg PUBLIC "-//W3C//DTD SVG 20010904//EN"
 "http://www.w3.org/TR/2001/REC-SVG-20010904/DTD/svg10.dtd">
<svg version="1.0" xmlns="http://www.w3.org/2000/svg"
 width="512.000000pt" height="512.000000pt" viewBox="0 0 512.000000 512.000000"
 preserveAspectRatio="xMidYMid meet" style=" width: 20px; height: 20px;">

<g transform="translate(0.000000,512.000000) scale(0.100000,-0.100000)"
fill="#000000" stroke="none">
<path d="M1983 5105 c-34 -8 -98 -32 -143 -55 -79 -41 -122 -78 -321 -265 -83
-78 -115 -100 -245 -169 -175 -92 -254 -146 -317 -216 -90 -101 -132 -205
-172 -431 -34 -193 -44 -224 -125 -391 -104 -212 -123 -277 -124 -418 0 -136
18 -199 113 -388 77 -155 106 -241 131 -392 43 -258 89 -369 202 -483 38 -37
68 -70 68 -72 0 -2 -119 -266 -265 -585 -282 -617 -283 -621 -246 -690 24 -46
94 -83 140 -76 19 3 167 42 328 87 161 45 295 80 297 78 2 -2 63 -130 136
-284 72 -154 143 -292 158 -308 32 -33 88 -52 134 -43 75 14 80 24 362 641
l264 580 94 14 c75 12 113 12 197 3 58 -7 108 -15 112 -19 3 -5 124 -267 268
-583 278 -612 284 -622 359 -636 46 -9 102 10 134 43 15 16 86 154 158 308 73
154 134 282 136 284 2 2 136 -33 298 -78 162 -45 309 -84 328 -87 45 -7 115
31 139 76 37 69 36 73 -246 690 -146 319 -265 583 -265 585 0 2 30 35 68 72
113 113 159 224 202 483 29 170 38 198 129 389 104 217 116 258 115 396 -1
135 -22 205 -124 413 -81 167 -91 198 -125 391 -62 355 -144 467 -460 632
-165 86 -191 105 -340 247 -273 259 -395 301 -735 252 -193 -28 -285 -28 -472
-1 -168 24 -255 25 -345 6z m324 -306 c181 -27 322 -27 508 1 175 26 251 23
321 -11 28 -14 102 -75 179 -150 167 -160 209 -191 385 -284 276 -147 294
-170 345 -467 33 -194 53 -254 140 -433 103 -212 119 -276 94 -370 -5 -22 -46
-114 -89 -205 -105 -221 -98 -198 -166 -555 -33 -170 -83 -229 -285 -335 -189
-99 -255 -147 -408 -294 -176 -168 -217 -191 -341 -190 -47 0 -134 9 -195 20
-144 24 -326 24 -470 0 -60 -11 -148 -20 -195 -20 -123 -1 -162 20 -343 193
-162 154 -212 190 -401 289 -208 108 -257 165 -290 337 -68 357 -61 334 -166
555 -43 91 -84 183 -89 205 -25 95 -9 159 95 371 82 168 110 260 147 473 30
167 65 252 126 300 21 17 97 62 167 100 207 112 259 149 404 287 226 217 248
225 527 183z m-909 -3162 c30 -18 120 -95 202 -172 163 -154 225 -197 341
-235 l78 -26 -156 -342 c-86 -188 -159 -342 -163 -342 -3 0 -51 91 -105 203
-109 220 -131 247 -203 247 -19 0 -125 -25 -234 -56 -110 -30 -203 -54 -207
-52 -4 2 76 186 178 411 143 313 189 406 201 402 8 -4 39 -20 68 -38z m2593
-365 c102 -224 183 -408 179 -410 -4 -2 -98 22 -208 53 -110 30 -215 55 -234
55 -72 0 -95 -28 -203 -247 -54 -112 -102 -203 -105 -203 -4 0 -77 154 -163
342 l-156 342 78 26 c116 38 178 81 341 235 121 115 252 215 280 215 3 0 89
-184 191 -408z"/>
<path d="M2410 4255 c-205 -58 -345 -192 -423 -405 -28 -77 -36 -370 -13 -479
12 -58 50 -155 83 -211 2 -3 -26 -20 -61 -38 -86 -44 -158 -119 -202 -206 -44
-91 -54 -154 -54 -356 0 -189 12 -231 72 -268 35 -22 36 -22 748 -22 712 0
713 0 748 22 60 37 72 79 72 268 0 91 -4 191 -10 224 -22 136 -122 274 -246
338 -35 18 -63 35 -61 38 33 56 71 153 83 211 24 111 15 402 -14 482 -69 189
-201 326 -375 387 -82 30 -266 37 -347 15z m253 -301 c60 -20 131 -84 165
-148 26 -50 27 -56 27 -221 0 -189 -8 -223 -74 -298 -82 -92 -237 -121 -353
-64 -64 32 -111 80 -142 146 -19 41 -21 64 -21 216 0 165 1 172 27 220 24 45
61 87 110 124 55 41 179 53 261 25z m-223 -1049 c88 -20 191 -16 291 11 l66
17 107 -42 c150 -61 176 -98 176 -248 l0 -73 -520 0 -520 0 0 73 c0 147 28
188 170 247 102 42 109 43 230 15z"/>
</g>
</svg>
